<svg width="508" height="274" viewBox="0 0 508 274" fill="none" xmlns="http://www.w3.org/2000/svg" preserveAspectRatio="xMinYMax meet">
<g id="background">
<g id="book">
<path id="Vector" d="M437.428 133.893H387.785V126.832H437.428V133.893Z" fill="#A2BAE6"/>
<path id="Vector_2" d="M436.195 130.786V129.978C436.195 129.447 435.984 128.938 435.609 128.563C435.234 128.188 434.726 127.977 434.195 127.977H387.7C387.17 127.977 386.661 127.767 386.287 127.391C385.912 127.016 385.701 126.508 385.701 125.977C385.701 125.447 385.912 124.938 386.287 124.563C386.661 124.187 387.17 123.977 387.7 123.977H438.152C438.682 123.977 439.19 124.187 439.565 124.563C439.94 124.938 440.151 125.447 440.151 125.977V134.744C440.151 135.275 439.94 135.784 439.565 136.159C439.19 136.534 438.682 136.745 438.152 136.745H387.7C387.17 136.745 386.661 136.534 386.287 136.159C385.912 135.784 385.701 135.275 385.701 134.744C385.701 134.214 385.912 133.705 386.287 133.33C386.661 132.955 387.17 132.744 387.7 132.744H434.195C434.718 132.744 435.221 132.539 435.594 132.173C435.968 131.807 436.184 131.309 436.195 130.786Z" fill="#FD2468"/>
<g id="Group">
<path id="Vector_3" d="M461.463 133.893H428.963V126.832H461.463V133.893Z" fill="white"/>
<path id="Vector_4" d="M461.888 133.893H453.678V126.832H461.888V133.893Z" fill="#A2BAE6"/>
<path id="Vector_5" d="M460.655 130.786V129.978C460.655 129.447 460.444 128.938 460.069 128.563C459.694 128.188 459.186 127.977 458.655 127.977H429.346C428.816 127.977 428.307 127.767 427.932 127.391C427.557 127.016 427.347 126.508 427.347 125.977C427.347 125.447 427.557 124.938 427.932 124.563C428.307 124.187 428.816 123.977 429.346 123.977H462.654C462.917 123.977 463.177 124.028 463.419 124.129C463.662 124.23 463.882 124.377 464.068 124.563C464.253 124.748 464.401 124.969 464.501 125.212C464.602 125.454 464.653 125.714 464.653 125.977V134.744C464.653 135.007 464.602 135.267 464.501 135.51C464.401 135.753 464.253 135.973 464.068 136.159C463.882 136.345 463.662 136.492 463.419 136.592C463.177 136.693 462.917 136.745 462.654 136.745H429.346C428.816 136.745 428.307 136.534 427.932 136.159C427.557 135.784 427.347 135.275 427.347 134.744C427.347 134.214 427.557 133.705 427.932 133.33C428.307 132.955 428.816 132.744 429.346 132.744H458.655C459.178 132.744 459.681 132.539 460.054 132.173C460.428 131.807 460.644 131.309 460.655 130.786Z" fill="#E11D56"/>
</g>
</g>
<g id="desk">
<path id="Vector_6" d="M1 135.5H0.5V136V150V150.5H1H507H507.5V150V136V135.5H507H1Z" fill="#F1F1F1" stroke="#BEBEBE"/>
<path id="Vector_7" d="M39.0927 180.666H60.4899V273.983H39.0927V180.666Z" fill="#8C8C8C"/>
<path id="Vector_8" d="M40.454 150.151H59.1286V180.675H40.454V150.151Z" fill="#5C5C5C"/>
<path id="Vector_9" d="M40.454 150.151H59.1286V166.371H40.454V150.151Z" fill="#4D4D4D"/>
<path id="Vector_10" d="M442.916 180.666H464.313V273.983H442.916V180.666Z" fill="#8C8C8C"/>
<path id="Vector_11" d="M444.277 150.151H462.952V180.675H444.277V150.151Z" fill="#5C5C5C"/>
<path id="Vector_12" d="M444.277 150.151H462.952V166.371H444.277V150.151Z" fill="#4D4D4D"/>
<path id="Vector_13" d="M474.419 136V136.083C474.419 141.26 375.707 145.485 253.958 145.485C132.209 145.485 33.5394 141.26 33.5394 136.083V136H1V150H507V136H474.419Z" fill="white"/>
<path id="Vector_14" d="M475.118 150.321H432.111C429.245 150.321 426.921 152.641 426.921 155.503C426.921 158.365 429.245 160.685 432.111 160.685H475.118C477.984 160.685 480.308 158.365 480.308 155.503C480.308 152.641 477.984 150.321 475.118 150.321Z" fill="#1A1A1A"/>
<path id="Vector_15" d="M442.703 152.747H433.387C432.283 152.747 431.388 153.643 431.388 154.747V156.254C431.388 157.359 432.283 158.254 433.387 158.254H442.703C443.807 158.254 444.702 157.359 444.702 156.254V154.747C444.702 153.643 443.807 152.747 442.703 152.747Z" fill="#6B6B6B"/>
<path id="Vector_16" d="M450.275 153.215H448.446C447.671 153.215 447.042 153.844 447.042 154.62V156.45C447.042 157.226 447.671 157.854 448.446 157.854H450.275C451.05 157.854 451.679 157.226 451.679 156.45V154.62C451.679 153.844 451.05 153.215 450.275 153.215Z" fill="#4F4F4F"/>
<path id="Vector_17" d="M456.188 153.215H454.359C453.584 153.215 452.955 153.844 452.955 154.62V156.45C452.955 157.226 453.584 157.854 454.359 157.854H456.188C456.963 157.854 457.592 157.226 457.592 156.45V154.62C457.592 153.844 456.963 153.215 456.188 153.215Z" fill="#4F4F4F"/>
<path id="Vector_18" d="M462.101 153.215H460.272C459.497 153.215 458.868 153.844 458.868 154.62V156.45C458.868 157.226 459.497 157.854 460.272 157.854H462.101C462.876 157.854 463.505 157.226 463.505 156.45V154.62C463.505 153.844 462.876 153.215 462.101 153.215Z" fill="#4F4F4F"/>
<path id="Vector_19" d="M468.056 153.215H466.227C465.452 153.215 464.824 153.844 464.824 154.62V156.45C464.824 157.226 465.452 157.854 466.227 157.854H468.056C468.832 157.854 469.46 157.226 469.46 156.45V154.62C469.46 153.844 468.832 153.215 468.056 153.215Z" fill="#4F4F4F"/>
<path id="Vector_20" d="M473.969 153.215H472.14C471.365 153.215 470.736 153.844 470.736 154.62V156.45C470.736 157.226 471.365 157.854 472.14 157.854H473.969C474.745 157.854 475.373 157.226 475.373 156.45V154.62C475.373 153.844 474.745 153.215 473.969 153.215Z" fill="#4F4F4F"/>
</g>
<g id="screen">
<path id="Vector_21" d="M323.339 14.8108H184.619C181.588 14.8108 179.131 17.2689 179.131 20.301V112.839C179.131 115.871 181.588 118.329 184.619 118.329H323.339C326.369 118.329 328.826 115.871 328.826 112.839V20.301C328.826 17.2689 326.369 14.8108 323.339 14.8108Z" fill="white"/>
<path id="Vector_22" d="M184.661 109.208C184.048 109.22 183.455 108.99 183.009 108.568C182.563 108.146 182.301 107.566 182.279 106.953V20.1734C182.301 19.56 182.563 18.9799 183.009 18.558C183.455 18.1361 184.048 17.9061 184.661 17.9177H323.339C323.952 17.9061 324.545 18.1361 324.991 18.558C325.437 18.9799 325.699 19.56 325.721 20.1734V106.953C325.699 107.566 325.437 108.146 324.991 108.568C324.545 108.99 323.952 109.22 323.339 109.208H184.661Z" fill="#1B2F46"/>
<path id="Vector_23" d="M288.159 21.3225H187.554C186.544 21.3225 185.725 22.1418 185.725 23.1525V103.335C185.725 104.346 186.544 105.165 187.554 105.165H288.159C289.169 105.165 289.988 104.346 289.988 103.335V23.1525C289.988 22.1418 289.169 21.3225 288.159 21.3225Z" fill="#E3E3E3" stroke="white" stroke-miterlimit="10"/>
<path id="Vector_24" d="M188.107 21.5353H287.861C288.425 21.5353 288.966 21.7595 289.365 22.1585C289.764 22.5576 289.988 23.0989 289.988 23.6633V26.2594H185.98V23.6633C185.98 23.0989 186.204 22.5576 186.603 22.1585C187.002 21.7595 187.543 21.5353 188.107 21.5353Z" fill="#9E9E9E"/>
<path id="Vector_25" d="M185.98 26.2594H289.988V30.9921H185.98V26.2594ZM188.32 32.4731H286.032V37.2058H188.32V32.4731ZM188.32 39.4104H286.032V60.3711H188.32V39.4104ZM188.32 63.8397H286.032V97.3683H188.32V63.8397Z" fill="white"/>
<path id="Vector_26" d="M260.806 26.8978H198.614C197.674 26.8978 196.913 27.66 196.913 28.6002V28.6342C196.913 29.5744 197.674 30.3366 198.614 30.3366H260.806C261.746 30.3366 262.508 29.5744 262.508 28.6342V28.6002C262.508 27.66 261.746 26.8978 260.806 26.8978Z" fill="#E8E8E8" stroke="#B8B8B8" stroke-width="0.83" stroke-miterlimit="10"/>
<path id="Vector_27" d="M200.188 22.3865H215.204C215.746 22.3865 216.265 22.6017 216.648 22.9848C217.031 23.3679 217.246 23.8875 217.246 24.4293V26.2594H198.146V24.4293C198.146 23.8875 198.361 23.3679 198.744 22.9848C199.127 22.6017 199.647 22.3865 200.188 22.3865Z" fill="white"/>
<path id="Vector_28" d="M318.617 25.3656H261.359C260.725 25.3656 260.211 25.8801 260.211 26.5148V97.845C260.211 98.4796 260.725 98.9941 261.359 98.9941H318.617C319.251 98.9941 319.765 98.4796 319.765 97.845V26.5148C319.765 25.8801 319.251 25.3656 318.617 25.3656Z" fill="black" stroke="white" stroke-miterlimit="10"/>
<path id="Vector_29" d="M261.232 25.5784H318.659C318.885 25.5784 319.101 25.6681 319.261 25.8278C319.421 25.9874 319.51 26.2039 319.51 26.4296V29.5365H260.381V26.4722C260.375 26.3569 260.393 26.2416 260.433 26.1334C260.473 26.0251 260.535 25.9262 260.615 25.8426C260.694 25.759 260.79 25.6925 260.896 25.6471C261.002 25.6016 261.116 25.5783 261.232 25.5784Z" fill="#636363"/>
<path id="Vector_30" d="M188.32 24.8124C188.884 24.8124 189.341 24.3551 189.341 23.7909C189.341 23.2268 188.884 22.7695 188.32 22.7695C187.756 22.7695 187.299 23.2268 187.299 23.7909C187.299 24.3551 187.756 24.8124 188.32 24.8124Z" fill="white"/>
<path id="Vector_31" d="M191.255 24.8124C191.819 24.8124 192.276 24.3551 192.276 23.7909C192.276 23.2268 191.819 22.7695 191.255 22.7695C190.691 22.7695 190.234 23.2268 190.234 23.7909C190.234 24.3551 190.691 24.8124 191.255 24.8124Z" fill="white"/>
<path id="Vector_32" d="M194.19 24.8124C194.754 24.8124 195.211 24.3551 195.211 23.7909C195.211 23.2268 194.754 22.7695 194.19 22.7695C193.626 22.7695 193.169 23.2268 193.169 23.7909C193.169 24.3551 193.626 24.8124 194.19 24.8124Z" fill="white"/>
<path id="Vector_33" d="M194.53 29.8344C195.188 29.8344 195.722 29.3009 195.722 28.6427C195.722 27.9846 195.188 27.4511 194.53 27.4511C193.873 27.4511 193.339 27.9846 193.339 28.6427C193.339 29.3009 193.873 29.8344 194.53 29.8344Z" fill="#B8B8B8"/>
<path id="Vector_34" d="M191.34 29.8344C191.998 29.8344 192.531 29.3009 192.531 28.6427C192.531 27.9846 191.998 27.4511 191.34 27.4511C190.682 27.4511 190.149 27.9846 190.149 28.6427C190.149 29.3009 190.682 29.8344 191.34 29.8344Z" fill="#B8B8B8"/>
<path id="Vector_35" d="M188.32 29.8344C188.978 29.8344 189.511 29.3009 189.511 28.6427C189.511 27.9846 188.978 27.4511 188.32 27.4511C187.662 27.4511 187.129 27.9846 187.129 28.6427C187.129 29.3009 187.662 29.8344 188.32 29.8344Z" fill="#B8B8B8"/>
<path id="Vector_36" d="M189.851 33.2392H200.061V36.3248H189.851V33.2392ZM190.106 65.2867H224.648V68.3723H190.106V65.2867ZM190.106 70.3939H260.211V72.4836H190.106V70.3939ZM190.106 73.2029H260.211V75.2925H190.106V73.2029ZM190.106 76.0544H260.211V78.144H190.106V76.0544ZM190.106 78.9059H260.211V80.9956H190.106V78.9059ZM190.106 81.7999H260.211V83.8896H190.106V81.7999ZM190.106 84.6514H260.211V86.7411H190.106V84.6514ZM190.106 87.4604H260.211V89.5501H190.106V87.4604ZM190.106 90.3119H260.211V92.4016H190.106V90.3119ZM190.106 93.1634H260.211V95.2531H190.106V93.1634Z" fill="#B8B8B8"/>
<g id="textCode">
<path id="Vector_37" d="M262.55 35.8354H298.836V38.0144H262.55V35.8354ZM262.55 40.0913H303.09V42.2704H262.55V40.0913ZM262.55 44.3048H308.578V46.4838H262.55V44.3048ZM262.55 48.5607H294.582V50.7398H262.55V48.5607ZM262.55 53.8807H314.661V56.0598H262.55V53.8807ZM262.55 58.0941H312.917V60.2732H262.55V58.0941ZM262.55 62.3501H311.683V64.5292H262.55V62.3501ZM262.55 69.4576H313.767V71.6367H262.55V69.4576ZM262.55 73.288H304.664V75.4671H262.55V73.288ZM262.55 77.5865H308.578V79.7656H262.55V77.5865ZM262.55 81.4169H300.41V83.596H262.55V81.4169Z" fill="#D4D4D4"/>
</g>
<path id="Vector_38" fill-rule="evenodd" clip-rule="evenodd" d="M210.865 42.0065L188.32 60.3498H241.664L210.865 42.0065Z" fill="#8F8F8F"/>
<path id="Vector_39" d="M219.501 42.0065L196.913 60.3498H250.257L219.501 42.0065Z" fill="black"/>
<path id="Vector_40" d="M251.618 43.0705L220.564 60.3498H260.211L251.618 43.0705Z" fill="black"/>
<path id="Vector_41" d="M342.396 34.0053H355.966V135.736H342.396V34.0053Z" fill="#3B3B3B"/>
<path id="Vector_42" d="M342.396 55.7959H349.16V135.732H342.396V55.7959ZM342.396 34.0053H349.16V42.2619H342.396V34.0053Z" fill="#2E2E2E"/>
<path id="Vector_43" d="M328.826 42.2193H353.584C355.152 42.2193 356.656 42.8426 357.765 43.952C358.874 45.0615 359.497 46.5662 359.497 48.1351V49.9227C359.497 51.4916 358.874 52.9963 357.765 54.1058C356.656 55.2152 355.152 55.8385 353.584 55.8385H328.826V42.2193Z" fill="#3B3B3B"/>
</g>
<g id="laptop">
<path id="Vector_44" d="M137.103 74.9053H51.4716C49.6156 74.9053 48.111 76.4106 48.111 78.2675V128.777C48.111 130.634 49.6156 132.14 51.4716 132.14H137.103C138.959 132.14 140.463 130.634 140.463 128.777V78.2675C140.463 76.4106 138.959 74.9053 137.103 74.9053Z" fill="#D4D4D4"/>
<path id="Vector_45" fill-rule="evenodd" clip-rule="evenodd" d="M93.6703 121.806C75.0808 121.806 58.5331 116.912 48.111 109.294V128.829C48.111 129.72 48.4651 130.575 49.0953 131.206C49.7255 131.837 50.5803 132.191 51.4716 132.191H137.145C138.037 132.191 138.891 131.837 139.522 131.206C140.152 130.575 140.506 129.72 140.506 128.829V108.4C130.126 116.486 113.026 121.806 93.6703 121.806Z" fill="#C4C4C4"/>
<path id="Vector_46" d="M76.2293 124.743H112.345V135.808H76.2293V124.743Z" fill="#575757"/>
<path id="Vector_47" d="M76.2293 124.913H112.345V128.552H76.2293V124.913Z" fill="#2E2E2E"/>
<path id="Vector_48" d="M94.3084 108.315C96.9632 108.315 99.1154 106.162 99.1154 103.505C99.1154 100.849 96.9632 98.6962 94.3084 98.6962C91.6537 98.6962 89.5015 100.849 89.5015 103.505C89.5015 106.162 91.6537 108.315 94.3084 108.315Z" fill="#A8A8A8"/>
<path id="Vector_49" d="M140.463 79.9273H143.654V82.383H140.463V79.9273Z" fill="#666666"/>
<path id="Vector_50" fill-rule="evenodd" clip-rule="evenodd" d="M143.654 80.5657C143.654 80.5657 156.203 80.0124 156.075 89.8863C155.947 99.7602 144.717 111.251 146.078 118.955C147.44 126.658 154.586 135.766 154.586 135.766H152.672C152.672 135.766 145.61 127.254 144.547 118.614C143.611 110.868 154.586 97.1215 154.671 89.5458C154.756 81.9702 143.696 81.7999 143.696 81.7999L143.654 80.5657Z" fill="#666666"/>
</g>
<g id="personInChair">
<path id="Vector_51" d="M249.831 234.59H258.892V249.771H249.831V234.59Z" fill="white"/>
<path id="Vector_52" d="M230.093 235.739H278.673C279.496 235.739 280.286 235.411 280.868 234.829C281.451 234.246 281.778 233.456 281.778 232.632H226.988C226.988 233.456 227.315 234.246 227.897 234.829C228.48 235.411 229.269 235.739 230.093 235.739Z" fill="#303030"/>
<path id="Vector_53" d="M248.342 249.443H260.466V274.004H248.342V249.443Z" fill="#5E5E5E"/>
<path id="Vector_54" d="M254 54.9873L236.006 58.6048C236.006 58.6048 238.346 65.5846 243.067 69.9683C247.789 74.352 254 72.1389 254 72.1389C254 72.1389 260.211 74.352 264.933 69.9683C269.654 65.5846 271.994 58.6048 271.994 58.6048L254 54.9873Z" fill="#272332"/>
<path id="Vector_55" d="M235.751 44.6878C235.751 44.6878 233.411 31.7496 228.987 35.0693C226.265 37.1121 230.391 43.794 230.391 45.8369C230.476 50.6887 233.071 52.0932 234.9 49.7098C235.437 49.0038 235.795 48.1781 235.943 47.3035C236.091 46.4289 236.025 45.5314 235.751 44.6878ZM272.207 44.6878C272.207 44.6878 274.589 31.7496 278.97 35.0693C281.693 37.1121 277.567 43.794 277.567 45.8369C277.482 50.6887 274.887 52.0932 273.057 49.7098C272.521 49.0038 272.163 48.1781 272.015 47.3035C271.867 46.4289 271.932 45.5314 272.207 44.6878Z" fill="#FDC8A9"/>
<path id="Vector_56" d="M235.751 44.6878C235.751 44.6878 233.411 31.7496 228.987 35.0693C226.265 37.1121 230.391 43.794 230.391 45.8369C230.476 50.6887 233.071 52.0932 234.9 49.7098C235.437 49.0038 235.795 48.1781 235.943 47.3035C236.091 46.4289 236.025 45.5314 235.751 44.6878Z" fill="url(#paint0_linear)"/>
<path id="Vector_57" d="M272.207 44.6878C272.207 44.6878 274.589 31.7496 278.97 35.0693C281.693 37.1121 277.567 43.794 277.567 45.8369C277.482 50.6887 274.887 52.0932 273.058 49.7098C272.521 49.0038 272.163 48.1781 272.015 47.3035C271.867 46.4289 271.932 45.5314 272.207 44.6878Z" fill="url(#paint1_linear)"/>
<path id="Vector_58" d="M279.013 35.0693C278.12 34.3883 277.269 34.3883 276.546 34.8565C277.164 35.9344 277.524 37.141 277.598 38.3815C277.672 39.6221 277.457 40.8628 276.971 42.0065C276.431 43.107 276.154 44.318 276.161 45.544C276.168 46.77 276.46 47.9776 277.014 49.0714C277.393 48.0505 277.58 46.9684 277.567 45.8795C277.609 43.794 281.693 37.1121 279.013 35.0693ZM228.987 35.0693C229.88 34.3883 230.731 34.3883 231.454 34.8565C230.836 35.9344 230.476 37.141 230.402 38.3815C230.328 39.6221 230.543 40.8628 231.029 42.0065C231.569 43.107 231.847 44.318 231.839 45.544C231.832 46.77 231.54 47.9776 230.986 49.0714C230.607 48.0505 230.42 46.9684 230.433 45.8795C230.391 43.794 226.265 37.1121 228.987 35.0693Z" fill="#FDC8A9"/>
<path id="Vector_59" d="M260.849 69.5002L266.719 64.9888C269.139 63.1756 271.137 60.8595 272.576 58.1999C274.015 55.5403 274.862 52.6003 275.057 49.5822L276.291 27.1957C276.971 14.8534 267.017 4.25598 254.043 4.25598C241.026 4.25598 231.114 14.8534 231.795 27.1957L233.028 49.5822C233.218 52.5968 234.058 55.5347 235.49 58.194C236.922 60.8534 238.912 63.1714 241.323 64.9888L247.194 69.5002C248.295 70.3345 249.641 70.7832 251.022 70.7769H257.063C258.43 70.7739 259.759 70.3257 260.849 69.5002Z" fill="#EC9D90"/>
<path id="Vector_60" d="M267.825 56.6471L254 58.69L240.175 56.6471C240.175 56.6471 242.004 68.2234 236.261 77.7142C236.061 78.0455 235.994 78.4403 236.073 78.8193C236.152 79.1983 236.371 79.5333 236.687 79.7571C239.111 81.4169 245.194 84.8217 254 84.8642C262.806 84.9068 268.889 81.4169 271.313 79.7571C271.629 79.5333 271.849 79.1983 271.927 78.8193C272.006 78.4403 271.939 78.0455 271.739 77.7142C265.996 68.2234 267.825 56.6471 267.825 56.6471Z" fill="#FDC8A9"/>
<path id="Vector_61" d="M254 4.29854C243.578 4.29854 235.41 10.1718 232.816 19.237C232.688 19.7052 232.263 21.0671 232.178 21.5353C231.788 23.3809 231.645 25.2699 231.752 27.1532C231.71 27.734 231.71 28.3172 231.752 28.8981L232.986 45.6241C233.241 48.8587 238.941 60.8605 245.747 65.9677C246.469 66.517 247.35 66.8158 248.257 66.8189H259.743C260.65 66.8158 261.531 66.517 262.253 65.9677C269.059 60.8605 274.759 48.8587 275.014 45.6241L276.248 28.8981C276.29 28.3172 276.29 27.734 276.248 27.1532C276.929 14.8108 266.974 4.29854 254 4.29854Z" fill="#36323E"/>
<path id="Vector_62" d="M275.227 13.0233C275.945 13.2818 276.641 13.5949 277.311 13.9596C277.311 13.9596 274.546 0 256.042 0C245.322 0 239.196 6.46909 235.963 11.8742C234.522 14.1262 233.459 16.5989 232.816 19.1945C234.833 17.6321 237.188 16.5642 239.692 16.0765C242.197 15.5887 244.78 15.6945 247.236 16.3855C249.959 17.109 252.681 18.173 255.531 18.1305C260.806 18.0879 268.208 13.2787 276.163 17.5346C275.988 16.7907 275.746 16.0642 275.44 15.3641L276.163 15.7046C275.945 14.7805 275.632 13.8819 275.227 13.0233Z" fill="#272332"/>
<path id="Vector_63" d="M232.986 45.6241C233.326 50.1354 249.236 66.3082 254 66.3082C263.656 66.3082 274.674 50.1354 275.014 45.6241" fill="#36323E"/>
<path id="Vector_64" d="M193.339 274H221.16L217.587 228.844L231.071 226.886L253.957 216.8L276.843 226.886L290.328 228.844L286.84 274H314.661L321.637 230.078C323.977 217.098 319.85 203.606 311.13 195.818L293.519 184.667V184.369C275.227 192.838 253.617 195.733 233.156 193.477C227.966 192.455 223.329 190.37 218.14 187.774C216.651 186.88 215.077 186.071 213.503 185.305L196.87 195.818C188.15 203.606 184.023 217.098 186.363 230.078L193.339 274Z" fill="#0B253E"/>
<g id="Group_2">
<path id="Vector_65" d="M338.484 112.698L298.497 86.7794C290.807 81.7116 282.036 78.5193 272.889 77.4589L266.04 76.6928C258.038 75.8124 249.964 75.8124 241.963 76.6928L235.114 77.4589C225.967 78.5193 217.196 81.7116 209.505 86.7794L169.519 112.698C166.03 115.167 163.989 119.976 164.542 125.083C165.18 131.297 169.604 135.851 174.708 135.851H210.271L214.61 138.788V184.667L213.632 185.305C215.206 186.114 216.78 186.923 218.268 187.774C223.458 190.37 228.095 192.413 233.285 193.477C253.703 195.733 275.356 192.838 293.648 184.369V138.788L297.987 135.851H333.549C338.611 135.851 343.078 131.297 343.716 125.083C344.014 119.976 341.972 115.124 338.484 112.698Z" fill="#294E78"/>
<path id="Vector_66" d="M338.483 112.698L318.957 100.058C321.935 108.144 321.084 117.465 317.468 125.168C315.384 129.382 311.853 133.425 307.472 135.851H333.335C338.397 135.851 342.864 131.297 343.502 125.083C344.013 119.976 341.971 115.124 338.483 112.698Z" fill="#DEAF94"/>
<path id="Vector_67" d="M338.483 112.698L318.957 100.058C321.935 108.144 321.084 117.465 317.468 125.168C317.256 125.594 314.703 129.424 314.491 129.807L331.336 135.851H333.293C338.355 135.851 342.822 131.297 343.46 125.083C344.013 119.976 341.971 115.124 338.483 112.698Z" fill="#FDC8A9"/>
<path id="Vector_68" d="M169.517 112.698L189.043 100.058C186.065 108.144 186.916 117.465 190.532 125.168C192.616 129.382 196.147 133.425 200.528 135.851H174.665C169.603 135.851 165.136 131.297 164.498 125.083C163.987 119.976 166.029 115.124 169.517 112.698Z" fill="#DEAF94"/>
<path id="Vector_69" d="M169.517 112.698L189.043 100.058C186.065 108.144 186.916 117.465 190.532 125.168C190.744 125.594 193.297 129.424 193.509 129.807L176.664 135.851H174.707C169.645 135.851 165.178 131.297 164.54 125.083C163.987 119.976 166.029 115.124 169.517 112.698Z" fill="#FDC8A9"/>
</g>
<path id="Vector_70" d="M307.514 216.034L307.004 215.651L300.878 211.224H205.888L199.805 215.651L199.295 216.034C198.937 216.347 198.649 216.733 198.451 217.166C198.253 217.599 198.149 218.069 198.146 218.545V223.95C198.146 226.252 199.061 228.461 200.688 230.089C202.315 231.717 204.523 232.632 206.824 232.632H299.985C302.286 232.632 304.494 231.717 306.121 230.089C307.748 228.461 308.663 226.252 308.663 223.95V218.545C308.66 218.069 308.556 217.599 308.358 217.166C308.16 216.733 307.872 216.347 307.514 216.034Z" fill="#647278"/>
<path id="Vector_71" d="M293.178 232.632H212.567C210.975 232.636 209.441 232.037 208.273 230.955C207.105 229.874 206.39 228.389 206.271 226.801L197.423 109.379C197.352 108.51 197.463 107.635 197.747 106.811C198.032 105.987 198.485 105.231 199.076 104.591C199.668 103.951 200.386 103.44 201.186 103.092C201.985 102.744 202.847 102.566 203.719 102.569H305.855C306.742 102.564 307.621 102.746 308.433 103.105C309.245 103.463 309.971 103.989 310.566 104.648C311.16 105.307 311.609 106.084 311.882 106.929C312.155 107.774 312.247 108.666 312.151 109.549L299.432 226.971C299.274 228.522 298.547 229.958 297.392 231.004C296.237 232.049 294.736 232.629 293.178 232.632Z" fill="#8B9EA6"/>
<path id="Vector_72" d="M253.915 204.542C233.496 204.542 215.204 194.285 202.911 178.113L206.569 226.759C206.687 228.347 207.402 229.831 208.571 230.913C209.739 231.995 211.273 232.594 212.865 232.589H293.476C295.035 232.598 296.541 232.029 297.704 230.991C298.867 229.954 299.604 228.521 299.772 226.971L305.089 177.943C292.753 194.2 274.419 204.542 253.915 204.542Z" fill="#7A8B91"/>
</g>
</g>
<defs>
<linearGradient id="paint0_linear" x1="232.054" y1="50.3525" x2="232.054" y2="36.1248" gradientUnits="userSpaceOnUse">
<stop stop-color="#EC9D90"/>
<stop offset="1" stop-color="#EC9D90" stop-opacity="0.2"/>
</linearGradient>
<linearGradient id="paint1_linear" x1="5474.11" y1="1965.44" x2="5474.11" y2="1419.84" gradientUnits="userSpaceOnUse">
<stop stop-color="#EC9D90"/>
<stop offset="1" stop-color="#EC9D90" stop-opacity="0.2"/>
</linearGradient>
</defs>
</svg>
