<svg viewBox="0 0 606 396" fill="none" xmlns="http://www.w3.org/2000/svg">
<g id="hero">
<g id="bubbles">
<g id="myAbout" class="svgHeroBtn">
<path id="Rectangle 6.3" d="M219.882 11.2761C220.007 9.62399 221.449 8.38657 223.101 8.51221L306.734 14.8727L390.368 21.2332C392.02 21.3589 393.257 22.8 393.132 24.4521L388.621 83.7637C388.495 85.4158 387.054 86.6532 385.402 86.5276L325.805 81.995C324.78 81.9171 323.787 82.3691 323.172 83.1929L299.082 115.494L281.966 80.1565C281.5 79.1952 280.558 78.554 279.493 78.473L218.135 73.8065C216.483 73.6809 215.245 72.2398 215.371 70.5877L219.882 11.2761Z" fill="#0A9C70"/>
<path id="Rectangle 6" d="M211 2.99136C211.126 1.33928 212.567 0.101855 214.219 0.227499L300.501 6.78939L386.782 13.3513C388.434 13.4769 389.672 14.9181 389.546 16.5701L384.867 78.091C384.742 79.743 383.301 80.9805 381.648 80.8548L320.09 76.1732C319.064 76.0951 318.069 76.5486 317.455 77.3744L292.589 110.815L274.935 74.2381C274.47 73.2748 273.527 72.632 272.46 72.5508L209.085 67.731C207.433 67.6054 206.196 66.1643 206.321 64.5122L211 2.99136Z" fill="#15CC95"/>
<g id="About Me" filter="url(#filter0_d)">
<path d="M242.373 41.659L236.415 41.2059L234.928 45.261L230.893 44.9542L238.905 25.5998L242.381 25.8642L247.252 46.1983L243.216 45.8914L242.373 41.659ZM237.604 38.0193L241.721 38.3324L240.245 30.8709L237.604 38.0193ZM263.042 40.1322C262.959 41.2319 262.759 42.2314 262.444 43.1306C262.138 44.0306 261.719 44.7939 261.187 45.4208C260.654 46.0476 260.015 46.52 259.269 46.838C258.523 47.1469 257.673 47.2651 256.719 47.1925C255.856 47.1269 255.118 46.9108 254.506 46.5443C253.904 46.1695 253.398 45.6739 252.987 45.0577L252.691 46.612L249.283 46.3528L250.875 25.4132L254.665 25.7015L254.093 33.2266C254.568 32.7508 255.111 32.3946 255.724 32.1577C256.345 31.9216 257.055 31.834 257.855 31.8948C258.818 31.9681 259.645 32.2183 260.335 32.6455C261.033 33.0735 261.598 33.6375 262.03 34.3375C262.461 35.0376 262.759 35.8602 262.925 36.8051C263.101 37.7417 263.147 38.7553 263.064 39.8459L263.042 40.1322ZM259.274 39.5577C259.32 38.9579 259.318 38.3864 259.267 37.8433C259.217 37.3001 259.094 36.82 258.897 36.4028C258.71 35.9773 258.435 35.6318 258.071 35.3665C257.707 35.1012 257.239 34.9467 256.667 34.9032C255.976 34.8506 255.401 34.9532 254.943 35.2109C254.494 35.4692 254.131 35.8439 253.856 36.3348L253.41 42.2104C253.607 42.7374 253.909 43.1625 254.314 43.4858C254.728 43.8098 255.289 43.9987 255.998 44.0527C256.571 44.0962 257.052 44.0231 257.441 43.8333C257.831 43.6344 258.15 43.3479 258.397 42.9737C258.655 42.5911 258.85 42.1351 258.981 41.6058C259.114 41.0674 259.204 40.4801 259.252 39.844L259.274 39.5577ZM266.022 40.0709C266.104 38.9985 266.334 38.0196 266.712 37.1343C267.091 36.2398 267.601 35.4788 268.243 34.8512C268.894 34.2243 269.661 33.7525 270.544 33.4357C271.437 33.1197 272.437 33.0038 273.546 33.0881C274.655 33.1725 275.626 33.4383 276.461 33.8857C277.295 34.3331 277.982 34.9155 278.522 35.6329C279.07 36.3511 279.464 37.1809 279.704 38.1223C279.943 39.0546 280.023 40.057 279.941 41.1294L279.919 41.4157C279.837 42.4972 279.606 43.4852 279.228 44.3796C278.85 45.265 278.34 46.0214 277.698 46.649C277.056 47.2767 276.289 47.7485 275.396 48.0645C274.504 48.3715 273.509 48.4831 272.409 48.3995C271.3 48.3152 270.324 48.0535 269.48 47.6146C268.645 47.1672 267.954 46.5844 267.405 45.8663C266.866 45.1488 266.476 44.3239 266.236 43.3916C265.997 42.4502 265.918 41.4387 266 40.3572L266.022 40.0709ZM269.79 40.6454C269.743 41.2634 269.758 41.8496 269.835 42.4038C269.912 42.949 270.063 43.4358 270.286 43.8641C270.51 44.2834 270.813 44.6263 271.195 44.893C271.586 45.1604 272.068 45.3159 272.64 45.3595C273.195 45.4016 273.681 45.3198 274.099 45.1139C274.516 44.908 274.863 44.6144 275.139 44.2332C275.425 43.8436 275.647 43.3852 275.806 42.8579C275.966 42.3216 276.069 41.7445 276.116 41.1265L276.138 40.8402C276.183 40.2404 276.167 39.6678 276.09 39.1226C276.013 38.5774 275.862 38.0907 275.639 37.6624C275.425 37.2347 275.126 36.8875 274.745 36.6208C274.363 36.3541 273.885 36.199 273.313 36.1555C272.749 36.1126 272.259 36.1941 271.841 36.4C271.423 36.6059 271.071 36.9036 270.786 37.2933C270.5 37.6829 270.278 38.1413 270.119 38.6685C269.96 39.1958 269.858 39.7593 269.812 40.3591L269.79 40.6454ZM292.301 47.5403C291.745 48.2384 291.097 48.7696 290.356 49.1337C289.625 49.4986 288.841 49.6492 288.005 49.5856C287.241 49.5275 286.55 49.3562 285.932 49.0715C285.314 48.7868 284.797 48.3727 284.381 47.8292C283.966 47.2766 283.662 46.5953 283.467 45.7853C283.283 44.9668 283.233 43.9987 283.318 42.8808L283.982 34.156L287.771 34.4442L287.106 43.1963C287.06 43.7961 287.063 44.3036 287.113 44.7188C287.173 45.1347 287.289 45.4772 287.46 45.7461C287.632 46.006 287.869 46.2023 288.17 46.3348C288.47 46.4674 288.843 46.5506 289.289 46.5845C290.043 46.6418 290.667 46.5476 291.161 46.3018C291.656 46.047 292.045 45.6789 292.328 45.1977L293.115 34.8506L296.919 35.1399L295.797 49.8903L292.362 49.629L292.301 47.5403ZM307.854 32.3381L307.579 35.9507L313.087 36.3695L312.874 39.1642L307.367 38.7453L306.885 45.0844C306.844 45.6207 306.869 46.075 306.959 46.4475C307.06 46.8117 307.215 47.1114 307.426 47.3468C307.637 47.5731 307.898 47.7438 308.209 47.8589C308.53 47.9747 308.89 48.0478 309.29 48.0782C309.58 48.1003 309.877 48.1091 310.179 48.1047C310.49 48.1009 310.783 48.0912 311.059 48.0756C311.344 48.0516 311.606 48.0258 311.846 47.9984C312.095 47.9716 312.307 47.942 312.483 47.9097L312.654 50.5415C312.378 50.676 312.059 50.7888 311.695 50.88C311.333 50.9621 310.949 51.0243 310.543 51.0666C310.138 51.1089 309.716 51.1316 309.277 51.1348C308.846 51.1478 308.422 51.1383 308.004 51.1065C307.195 51.045 306.466 50.8845 305.819 50.625C305.181 50.3572 304.643 49.9826 304.204 49.5013C303.775 49.0116 303.46 48.4118 303.258 47.7017C303.057 46.9826 302.993 46.1367 303.067 45.1643L303.577 38.4571L300.21 38.201L300.422 35.4064L303.79 35.6624L304.064 32.0498L307.854 32.3381ZM339.117 33.2212L340.432 40.8212L343.139 33.527L347.897 33.8888L346.387 53.7378L342.87 53.4703L343.317 47.5947L344.186 38.3234L340.927 46.7411L339.033 46.597L337.329 38.172L336.814 47.1001L336.367 52.9757L332.85 52.7082L334.36 32.8593L339.117 33.2212ZM356.945 54.815C355.809 54.7286 354.792 54.4638 353.893 54.0207C352.995 53.5776 352.238 53.0127 351.623 52.326C351.008 51.6303 350.552 50.8369 350.254 49.9459C349.966 49.0464 349.86 48.1014 349.935 47.1108L349.977 46.5655C350.062 45.4385 350.318 44.425 350.743 43.525C351.168 42.6158 351.725 41.8492 352.412 41.225C353.099 40.6009 353.893 40.1357 354.794 39.8294C355.695 39.5231 356.659 39.409 357.686 39.4871C358.749 39.568 359.681 39.8171 360.481 40.2345C361.291 40.6434 361.958 41.1877 362.482 41.8675C363.015 42.5479 363.398 43.3494 363.629 44.2719C363.861 45.1854 363.936 46.1829 363.854 47.2644L363.732 48.873L353.726 48.112C353.76 48.6174 353.871 49.0875 354.057 49.5221C354.253 49.9484 354.513 50.3246 354.835 50.6508C355.158 50.9769 355.535 51.2388 355.968 51.4362C356.401 51.6337 356.881 51.7524 357.408 51.7925C357.781 51.8209 358.152 51.8125 358.521 51.7675C358.899 51.7231 359.261 51.6455 359.608 51.5348C359.955 51.4149 360.282 51.2616 360.589 51.0746C360.896 50.8877 361.169 50.6617 361.408 50.3965L363.148 52.5855C362.886 52.9038 362.552 53.2121 362.145 53.5102C361.748 53.8 361.281 54.0524 360.744 54.2675C360.216 54.4741 359.633 54.6309 358.994 54.7377C358.355 54.8445 357.672 54.8703 356.945 54.815ZM357.425 42.5524C356.998 42.5199 356.602 42.5674 356.235 42.695C355.87 42.8134 355.54 43.0032 355.246 43.2642C354.961 43.5259 354.713 43.8452 354.501 44.2222C354.29 44.5991 354.12 45.025 353.993 45.4998L360.209 45.9726L360.232 45.6726C360.244 45.2714 360.196 44.8883 360.086 44.5235C359.977 44.1587 359.805 43.8394 359.57 43.5656C359.335 43.2826 359.037 43.0543 358.676 42.8806C358.324 42.6984 357.907 42.589 357.425 42.5524Z" fill="white"/>
</g>
</g>
<g id="myWork" class="svgHeroBtn">
<path id="Rectangle 6.3_2" d="M2.74831 129.456C2.39166 127.838 3.4142 126.237 5.03221 125.88L141.013 95.9066C142.631 95.5499 144.232 96.5725 144.589 98.1905L155.118 145.957C155.474 147.575 154.452 149.176 152.834 149.533L87.773 163.874C86.155 164.23 85.1325 165.831 85.4891 167.449L91.4375 194.435L50.3538 172.846C49.727 172.517 49.0039 172.42 48.3125 172.572L16.8528 179.506C15.2348 179.863 13.634 178.841 13.2773 177.223L2.74831 129.456Z" fill="#0A9C70"/>
<path id="Rectangle 6.1" d="M4.90249 118.979C4.54584 117.361 5.56837 115.76 7.18639 115.404L151.262 83.6458C152.88 83.2891 154.481 84.3117 154.837 85.9297L166.041 136.757C166.398 138.375 165.375 139.976 163.757 140.332L94.649 155.565C93.031 155.922 92.0084 157.523 92.3651 159.141L98.6897 187.834L55.2061 164.984C54.5794 164.654 53.8563 164.557 53.1648 164.71L19.6815 172.09C18.0635 172.447 16.4627 171.424 16.1061 169.806L4.90249 118.979Z" fill="#15CC95"/>
<g id="My Work" filter="url(#filter1_d)">
<path d="M32.667 128.767L36.1193 135.664L36.6056 127.899L41.2653 126.872L45.5502 146.312L42.1056 147.071L40.8372 141.316L38.9932 132.189L38.3031 141.189L36.4472 141.598L32.3836 134.024L34.4686 142.72L35.737 148.475L32.2923 149.234L28.0074 129.794L32.667 128.767ZM53.7203 138.155L54.4889 139.609L56.1445 128.828L60.2434 127.925L56.5746 146.149C56.4948 146.55 56.3729 146.992 56.209 147.476C56.0539 147.958 55.8253 148.424 55.523 148.873C55.2207 149.323 54.8211 149.733 54.3241 150.104C53.8361 150.472 53.2183 150.739 52.4706 150.904C52.2926 150.943 52.1259 150.971 51.9707 150.986C51.8174 151.011 51.6666 151.025 51.5183 151.03C51.372 151.044 51.2237 151.048 51.0734 151.044C50.934 151.047 50.7793 151.044 50.6093 151.034L50.4393 148.104C50.5907 148.07 50.783 148.033 51.0164 147.991C51.2606 147.955 51.454 147.922 51.5964 147.891C51.8901 147.826 52.1286 147.68 52.3119 147.453C52.5041 147.224 52.6567 146.985 52.7699 146.736C52.883 146.487 52.9689 146.263 53.0276 146.063C53.0862 145.864 53.1334 145.76 53.169 145.752L53.6927 143.873L44.5289 131.389L48.5877 130.494L53.7203 138.155ZM89.4145 128.537L88.2487 116.516L91.6934 115.756L93.2814 135.79L89.8901 136.538L85.5167 125.462L86.2719 137.335L82.8807 138.083L75.9254 119.232L79.3567 118.476L83.3086 129.799L82.4008 117.805L85.0845 117.213L89.4145 128.537ZM96.0391 127.468C95.8075 126.418 95.745 125.415 95.8514 124.458C95.9559 123.492 96.2248 122.616 96.6582 121.83C97.1005 121.042 97.6987 120.369 98.453 119.81C99.2162 119.25 100.141 118.85 101.227 118.611C102.313 118.372 103.32 118.346 104.248 118.533C105.176 118.721 106.001 119.08 106.725 119.611C107.458 120.14 108.074 120.821 108.575 121.653C109.074 122.477 109.439 123.413 109.671 124.464L109.733 124.744C109.966 125.803 110.031 126.816 109.926 127.781C109.82 128.738 109.55 129.61 109.116 130.396C108.683 131.182 108.085 131.855 107.322 132.416C106.556 132.967 105.635 133.361 104.558 133.599C103.472 133.838 102.462 133.869 101.527 133.693C100.599 133.505 99.7688 133.147 99.0361 132.618C98.3124 132.087 97.7011 131.409 97.2023 130.586C96.7015 129.754 96.3343 128.808 96.1009 127.749L96.0391 127.468ZM99.8125 126.931C99.9459 127.536 100.129 128.093 100.363 128.601C100.594 129.101 100.879 129.524 101.216 129.869C101.552 130.206 101.941 130.447 102.384 130.592C102.835 130.735 103.341 130.745 103.902 130.621C104.445 130.502 104.887 130.283 105.227 129.965C105.568 129.647 105.815 129.266 105.969 128.822C106.13 128.366 106.211 127.863 106.211 127.312C106.209 126.753 106.141 126.17 106.008 125.565L105.946 125.285C105.816 124.697 105.636 124.154 105.404 123.654C105.173 123.154 104.888 122.732 104.551 122.386C104.222 122.039 103.837 121.792 103.394 121.647C102.951 121.502 102.45 121.491 101.889 121.615C101.337 121.737 100.891 121.956 100.55 122.274C100.209 122.592 99.9587 122.978 99.7978 123.434C99.6368 123.889 99.5564 124.392 99.5564 124.943C99.5565 125.494 99.6212 126.063 99.7507 126.65L99.8125 126.931ZM121.721 114.093C122.282 113.97 122.807 113.896 123.296 113.872C123.793 113.837 124.197 113.832 124.511 113.857L124.779 117.676C124.264 117.668 123.742 117.694 123.214 117.754C122.693 117.804 122.201 117.88 121.738 117.982C120.697 118.211 119.904 118.596 119.36 119.136C118.826 119.674 118.485 120.351 118.338 121.167L120.251 129.846L116.539 130.664L113.355 116.218L116.813 115.455L117.508 117.78C117.915 116.832 118.477 116.036 119.193 115.393C119.908 114.74 120.751 114.307 121.721 114.093ZM135.131 120.308L133.793 122.241L134.764 126.647L131.052 127.465L126.532 106.957L130.244 106.139L132.828 117.861L133.667 116.332L136.693 111.073L141.153 110.09L137.033 117.312L145.098 124.369L140.545 125.372L135.131 120.308Z" fill="white"/>
</g>
</g>
<g id="myContact" class="svgHeroBtn">
<path id="Rectangle 6.3_3" d="M602.981 146.367C603.367 144.756 602.373 143.137 600.761 142.752L530.945 126.055L461.129 109.358C459.518 108.972 457.899 109.966 457.514 111.577L445.756 160.74C445.371 162.351 446.365 163.97 447.976 164.355L472.344 170.183C473.955 170.568 474.949 172.187 474.564 173.798L466.892 205.876L516.825 181.524C517.45 181.219 518.162 181.141 518.838 181.302L587.608 197.749C589.22 198.135 590.838 197.141 591.224 195.529L602.981 146.367Z" fill="#0A9C70"/>
<path id="Rectangle 6.2" d="M599.856 138.708C600.241 137.096 599.248 135.478 597.636 135.092L527.82 118.395L458.004 101.698C456.393 101.312 454.774 102.306 454.388 103.918L442.631 153.08C442.246 154.691 443.239 156.31 444.851 156.695L469.218 162.523C470.83 162.908 471.824 164.527 471.438 166.139L463.767 198.216L513.7 173.864C514.325 173.559 515.037 173.481 515.713 173.643L584.483 190.09C586.094 190.475 587.713 189.481 588.099 187.87L599.856 138.708Z" fill="#15CC95"/>
<g id="Contact" filter="url(#filter2_d)">
<path d="M477.926 137.855C477.631 138.815 477.209 139.642 476.659 140.335C476.117 141.031 475.48 141.581 474.745 141.986C474.011 142.392 473.191 142.646 472.286 142.748C471.383 142.841 470.426 142.767 469.415 142.525C468.272 142.252 467.307 141.8 466.52 141.172C465.735 140.534 465.132 139.767 464.709 138.869C464.288 137.963 464.046 136.939 463.981 135.799C463.916 134.659 464.037 133.451 464.342 132.174L464.965 129.568C465.273 128.283 465.722 127.149 466.313 126.165C466.905 125.182 467.602 124.384 468.404 123.77C469.207 123.156 470.097 122.745 471.075 122.539C472.063 122.325 473.107 122.35 474.206 122.613C475.269 122.867 476.178 123.244 476.93 123.742C477.691 124.243 478.297 124.842 478.749 125.541C479.2 126.239 479.498 127.032 479.642 127.919C479.786 128.806 479.781 129.766 479.628 130.798L475.905 129.907C476.008 129.323 476.04 128.796 476.002 128.328C475.973 127.862 475.859 127.455 475.661 127.108C475.474 126.754 475.198 126.458 474.833 126.221C474.479 125.977 474.027 125.789 473.477 125.658C472.901 125.52 472.371 125.524 471.886 125.671C471.401 125.817 470.96 126.096 470.561 126.507C470.172 126.92 469.827 127.46 469.527 128.129C469.228 128.788 468.973 129.561 468.761 130.448L468.132 133.081C467.676 134.987 467.605 136.46 467.918 137.5C468.241 138.542 468.982 139.202 470.144 139.48C471.119 139.713 471.951 139.641 472.642 139.262C473.334 138.875 473.85 138.108 474.19 136.962L477.926 137.855ZM480.768 137.199C481.018 136.153 481.4 135.223 481.914 134.409C482.429 133.586 483.053 132.915 483.786 132.397C484.528 131.881 485.361 131.536 486.283 131.363C487.214 131.192 488.22 131.236 489.302 131.495C490.383 131.753 491.301 132.169 492.054 132.743C492.807 133.317 493.393 134.001 493.812 134.794C494.241 135.59 494.498 136.472 494.586 137.439C494.675 138.398 494.595 139.4 494.344 140.446L494.278 140.725C494.025 141.78 493.641 142.719 493.126 143.543C492.612 144.357 491.989 145.023 491.256 145.541C490.523 146.06 489.691 146.404 488.76 146.575C487.831 146.737 486.83 146.69 485.757 146.433C484.676 146.175 483.753 145.762 482.989 145.195C482.236 144.621 481.645 143.936 481.217 143.141C480.798 142.347 480.543 141.471 480.454 140.512C480.367 139.545 480.449 138.533 480.701 137.479L480.768 137.199ZM484.398 138.363C484.254 138.965 484.176 139.547 484.164 140.106C484.154 140.657 484.225 141.161 484.378 141.619C484.533 142.069 484.778 142.455 485.113 142.779C485.457 143.105 485.908 143.335 486.466 143.468C487.007 143.597 487.5 143.594 487.945 143.456C488.39 143.319 488.779 143.084 489.112 142.751C489.456 142.412 489.748 141.994 489.988 141.499C490.23 140.995 490.424 140.441 490.568 139.838L490.635 139.559C490.774 138.974 490.849 138.406 490.859 137.856C490.869 137.305 490.798 136.801 490.645 136.342C490.501 135.886 490.261 135.496 489.926 135.172C489.592 134.849 489.145 134.62 488.586 134.486C488.037 134.355 487.539 134.358 487.094 134.495C486.649 134.632 486.255 134.871 485.911 135.21C485.567 135.55 485.275 135.967 485.035 136.463C484.795 136.958 484.605 137.498 484.465 138.083L484.398 138.363ZM502.668 134.972L502.417 137.021C503.103 136.426 503.86 136.021 504.69 135.807C505.521 135.584 506.384 135.58 507.279 135.794C508.006 135.968 508.646 136.233 509.197 136.59C509.749 136.947 510.186 137.412 510.508 137.986C510.841 138.553 511.04 139.233 511.103 140.026C511.177 140.812 511.089 141.728 510.839 142.774L508.721 151.63L505.025 150.746L507.13 141.944C507.266 141.376 507.31 140.895 507.264 140.5C507.229 140.098 507.118 139.762 506.929 139.492C506.741 139.222 506.488 139.007 506.17 138.846C505.854 138.677 505.484 138.542 505.058 138.44C504.429 138.289 503.862 138.29 503.357 138.441C502.854 138.583 502.413 138.843 502.032 139.22L499.586 149.446L495.876 148.558L499.317 134.171L502.668 134.972ZM523.297 136.181L522.454 139.704L527.826 140.989L527.174 143.715L521.802 142.43L520.323 148.613C520.198 149.136 520.151 149.589 520.181 149.971C520.223 150.346 520.329 150.667 520.5 150.933C520.672 151.19 520.903 151.4 521.192 151.562C521.49 151.727 521.834 151.856 522.224 151.95C522.508 152.018 522.799 152.073 523.098 152.117C523.406 152.162 523.697 152.199 523.971 152.227C524.257 152.248 524.52 152.264 524.761 152.275C525.011 152.288 525.226 152.293 525.405 152.289L525.156 154.914C524.863 155.003 524.53 155.064 524.157 155.097C523.785 155.121 523.396 155.121 522.989 155.099C522.582 155.076 522.162 155.032 521.728 154.966C521.301 154.91 520.883 154.834 520.475 154.737C519.686 154.548 518.993 154.274 518.394 153.916C517.807 153.55 517.335 153.095 516.978 152.551C516.632 151.999 516.415 151.357 516.328 150.624C516.243 149.882 516.314 149.037 516.541 148.088L518.105 141.546L514.821 140.761L515.473 138.035L518.757 138.82L519.6 135.297L523.297 136.181ZM537.576 158.531C537.529 158.333 537.503 158.111 537.496 157.865C537.489 157.62 537.494 157.363 537.511 157.096C537.254 157.269 536.969 157.421 536.657 157.552C536.344 157.684 536.006 157.785 535.642 157.858C535.289 157.923 534.908 157.949 534.499 157.936C534.087 157.931 533.656 157.875 533.204 157.767C532.468 157.591 531.815 157.322 531.246 156.961C530.685 156.602 530.228 156.179 529.876 155.692C529.524 155.204 529.287 154.67 529.164 154.087C529.043 153.496 529.056 152.89 529.205 152.27C529.567 150.754 530.41 149.718 531.733 149.163C533.067 148.601 534.855 148.588 537.098 149.125L539.159 149.618L539.362 148.767C539.528 148.075 539.432 147.476 539.076 146.969C538.721 146.453 538.118 146.093 537.267 145.89C536.514 145.71 535.925 145.742 535.501 145.988C535.079 146.224 534.803 146.613 534.674 147.153L530.977 146.269C531.123 145.658 531.395 145.109 531.793 144.623C532.199 144.139 532.709 143.75 533.323 143.456C533.945 143.165 534.658 142.988 535.459 142.927C536.272 142.859 537.162 142.941 538.128 143.172C538.997 143.38 539.778 143.679 540.472 144.07C541.174 144.463 541.751 144.933 542.201 145.481C542.651 146.029 542.954 146.66 543.112 147.372C543.272 148.076 543.252 148.844 543.053 149.677L541.577 155.847C541.393 156.618 541.289 157.268 541.265 157.797C541.242 158.325 541.28 158.794 541.379 159.202L541.325 159.428L537.576 158.531ZM534.672 155.095C535.044 155.184 535.401 155.223 535.741 155.21C536.081 155.198 536.397 155.152 536.688 155.071C536.979 154.991 537.239 154.885 537.467 154.752C537.698 154.61 537.889 154.459 538.04 154.298L538.631 151.825L536.743 151.373C536.167 151.236 535.661 151.176 535.226 151.193C534.792 151.202 534.423 151.278 534.117 151.42C533.813 151.554 533.566 151.748 533.374 152.001C533.184 152.247 533.05 152.533 532.971 152.861C532.852 153.358 532.927 153.811 533.194 154.222C533.47 154.635 533.963 154.926 534.672 155.095ZM551.954 159.13C552.317 159.217 552.675 159.246 553.029 159.219C553.382 159.191 553.706 159.109 554.001 158.973C554.296 158.837 554.543 158.648 554.742 158.405C554.949 158.164 555.084 157.873 555.147 157.532L558.631 158.365C558.471 159.114 558.15 159.769 557.67 160.328C557.198 160.89 556.628 161.335 555.959 161.662C555.29 161.99 554.552 162.197 553.743 162.285C552.946 162.366 552.135 162.308 551.311 162.111C550.194 161.844 549.259 161.424 548.506 160.85C547.755 160.267 547.174 159.58 546.764 158.789C546.362 157.999 546.12 157.13 546.037 156.183C545.966 155.229 546.051 154.246 546.292 153.236L546.388 152.837C546.629 151.826 546.997 150.916 547.491 150.106C547.986 149.288 548.596 148.618 549.321 148.098C550.045 147.578 550.869 147.226 551.793 147.045C552.727 146.865 553.747 146.907 554.856 147.172C555.742 147.384 556.53 147.713 557.22 148.16C557.91 148.606 558.467 149.137 558.891 149.754C559.326 150.364 559.612 151.051 559.748 151.815C559.886 152.569 559.844 153.37 559.623 154.217L556.139 153.384C556.242 153.033 556.269 152.684 556.222 152.335C556.174 151.986 556.058 151.668 555.874 151.38C555.689 151.092 555.445 150.842 555.14 150.628C554.837 150.406 554.486 150.247 554.087 150.151C553.502 150.012 552.99 150.016 552.552 150.164C552.113 150.312 551.731 150.558 551.405 150.902C551.088 151.248 550.819 151.666 550.599 152.157C550.387 152.65 550.216 153.171 550.084 153.721L549.989 154.12C549.855 154.678 549.77 155.229 549.734 155.774C549.7 156.309 549.746 156.803 549.872 157.255C550.009 157.7 550.24 158.088 550.563 158.418C550.896 158.751 551.36 158.988 551.954 159.13ZM572.362 147.915L571.519 151.439L576.891 152.724L576.239 155.449L570.868 154.165L569.389 160.348C569.264 160.871 569.216 161.323 569.247 161.706C569.288 162.081 569.394 162.401 569.565 162.667C569.738 162.924 569.969 163.134 570.258 163.297C570.556 163.462 570.9 163.591 571.29 163.684C571.574 163.752 571.865 163.808 572.164 163.851C572.471 163.897 572.763 163.933 573.037 163.961C573.322 163.983 573.586 163.999 573.827 164.01C574.077 164.023 574.291 164.027 574.47 164.023L574.222 166.649C573.929 166.738 573.595 166.799 573.222 166.831C572.851 166.855 572.462 166.856 572.055 166.833C571.648 166.811 571.227 166.767 570.793 166.7C570.366 166.645 569.949 166.569 569.541 166.471C568.752 166.282 568.058 166.009 567.46 165.65C566.873 165.285 566.4 164.83 566.043 164.285C565.697 163.734 565.481 163.091 565.394 162.358C565.309 161.616 565.38 160.771 565.606 159.823L567.171 153.281L563.887 152.495L564.539 149.769L567.823 150.555L568.666 147.031L572.362 147.915Z" fill="white"/>
</g>
</g>
</g>
<g id="mydesk (1)" clip-path="url(#clip0)">
<g id="Layer 2">
<g id="background">
<g id="book">
<path id="Vector" d="M513.727 254.916H464.084V247.856H513.727V254.916Z" fill="#A2BAE6"/>
<path id="Vector_2" d="M512.494 251.81V251.001C512.494 250.47 512.283 249.962 511.908 249.587C511.533 249.211 511.025 249.001 510.495 249.001H463.999C463.469 249.001 462.961 248.79 462.586 248.415C462.211 248.04 462 247.531 462 247C462 246.47 462.211 245.961 462.586 245.586C462.961 245.211 463.469 245 463.999 245H514.451C514.981 245 515.489 245.211 515.864 245.586C516.239 245.961 516.45 246.47 516.45 247V255.768C516.45 256.298 516.239 256.807 515.864 257.182C515.489 257.557 514.981 257.768 514.451 257.768H463.999C463.469 257.768 462.961 257.557 462.586 257.182C462.211 256.807 462 256.298 462 255.768C462 255.237 462.211 254.728 462.586 254.353C462.961 253.978 463.469 253.767 463.999 253.767H510.495C511.017 253.767 511.52 253.563 511.893 253.197C512.267 252.831 512.483 252.333 512.494 251.81Z" fill="#FD2468"/>
<g id="Group">
<path id="Vector_3" d="M537.762 254.916H505.262V247.856H537.762V254.916Z" fill="white"/>
<path id="Vector_4" d="M538.187 254.916H529.977V247.856H538.187V254.916Z" fill="#A2BAE6"/>
<path id="Vector_5" d="M536.954 251.81V251.001C536.954 250.47 536.743 249.962 536.368 249.587C535.993 249.211 535.485 249.001 534.954 249.001H505.645C505.115 249.001 504.606 248.79 504.231 248.415C503.856 248.04 503.646 247.531 503.646 247C503.646 246.47 503.856 245.961 504.231 245.586C504.606 245.211 505.115 245 505.645 245H538.953C539.216 245 539.476 245.052 539.718 245.152C539.961 245.253 540.181 245.4 540.367 245.586C540.553 245.772 540.7 245.992 540.8 246.235C540.901 246.478 540.952 246.738 540.952 247V255.768C540.952 256.03 540.901 256.29 540.8 256.533C540.7 256.776 540.553 256.996 540.367 257.182C540.181 257.368 539.961 257.515 539.718 257.616C539.476 257.716 539.216 257.768 538.953 257.768H505.645C505.115 257.768 504.606 257.557 504.231 257.182C503.856 256.807 503.646 256.298 503.646 255.768C503.646 255.237 503.856 254.728 504.231 254.353C504.606 253.978 505.115 253.767 505.645 253.767H534.954C535.477 253.767 535.98 253.563 536.353 253.197C536.727 252.831 536.943 252.333 536.954 251.81Z" fill="#E11D56"/>
</g>
</g>
<g id="desk">
<path id="Vector_6" d="M43 257.5H42.5V258V272V272.5H43H549H549.5V272V258V257.5H549H43Z" fill="#F1F1F1" stroke="#BEBEBE"/>
<path id="Vector_7" d="M81.0927 302.666H102.49V395.983H81.0927V302.666Z" fill="#8C8C8C"/>
<path id="Vector_8" d="M82.454 272.151H101.129V302.675H82.454V272.151Z" fill="#5C5C5C"/>
<path id="Vector_9" d="M82.454 272.151H101.129V288.371H82.454V272.151Z" fill="#4D4D4D"/>
<path id="Vector_10" d="M484.916 302.666H506.313V395.983H484.916V302.666Z" fill="#8C8C8C"/>
<path id="Vector_11" d="M486.277 272.151H504.952V302.675H486.277V272.151Z" fill="#5C5C5C"/>
<path id="Vector_12" d="M486.277 272.151H504.952V288.371H486.277V272.151Z" fill="#4D4D4D"/>
<path id="Vector_13" d="M516.419 258V258.083C516.419 263.26 417.707 267.485 295.958 267.485C174.209 267.485 75.5394 263.26 75.5394 258.083V258H43V272H549V258H516.419Z" fill="white"/>
<path id="Vector_14" d="M517.118 272.321H474.111C471.245 272.321 468.921 274.641 468.921 277.503C468.921 280.365 471.245 282.685 474.111 282.685H517.118C519.984 282.685 522.308 280.365 522.308 277.503C522.308 274.641 519.984 272.321 517.118 272.321Z" fill="#1A1A1A"/>
<path id="Vector_15" d="M484.703 274.747H475.387C474.283 274.747 473.388 275.643 473.388 276.747V278.254C473.388 279.359 474.283 280.254 475.387 280.254H484.703C485.807 280.254 486.702 279.359 486.702 278.254V276.747C486.702 275.643 485.807 274.747 484.703 274.747Z" fill="#6B6B6B"/>
<path id="Vector_16" d="M492.275 275.215H490.446C489.671 275.215 489.042 275.844 489.042 276.62V278.45C489.042 279.225 489.671 279.854 490.446 279.854H492.275C493.05 279.854 493.679 279.225 493.679 278.45V276.62C493.679 275.844 493.05 275.215 492.275 275.215Z" fill="#4F4F4F"/>
<path id="Vector_17" d="M498.188 275.215H496.359C495.584 275.215 494.955 275.844 494.955 276.62V278.45C494.955 279.225 495.584 279.854 496.359 279.854H498.188C498.963 279.854 499.592 279.225 499.592 278.45V276.62C499.592 275.844 498.963 275.215 498.188 275.215Z" fill="#4F4F4F"/>
<path id="Vector_18" d="M504.101 275.215H502.272C501.497 275.215 500.868 275.844 500.868 276.62V278.45C500.868 279.225 501.497 279.854 502.272 279.854H504.101C504.876 279.854 505.505 279.225 505.505 278.45V276.62C505.505 275.844 504.876 275.215 504.101 275.215Z" fill="#4F4F4F"/>
<path id="Vector_19" d="M510.056 275.215H508.227C507.452 275.215 506.824 275.844 506.824 276.62V278.45C506.824 279.225 507.452 279.854 508.227 279.854H510.056C510.832 279.854 511.46 279.225 511.46 278.45V276.62C511.46 275.844 510.832 275.215 510.056 275.215Z" fill="#4F4F4F"/>
<path id="Vector_20" d="M515.969 275.215H514.14C513.365 275.215 512.736 275.844 512.736 276.62V278.45C512.736 279.225 513.365 279.854 514.14 279.854H515.969C516.745 279.854 517.373 279.225 517.373 278.45V276.62C517.373 275.844 516.745 275.215 515.969 275.215Z" fill="#4F4F4F"/>
</g>
<g id="screen">
<path id="Vector_21" d="M365.339 136.811H226.619C223.588 136.811 221.131 139.269 221.131 142.301V234.839C221.131 237.871 223.588 240.329 226.619 240.329H365.339C368.369 240.329 370.826 237.871 370.826 234.839V142.301C370.826 139.269 368.369 136.811 365.339 136.811Z" fill="white"/>
<path id="Vector_22" d="M226.661 231.208C226.048 231.22 225.455 230.99 225.009 230.568C224.563 230.146 224.301 229.566 224.279 228.953V142.173C224.301 141.56 224.563 140.98 225.009 140.558C225.455 140.136 226.048 139.906 226.661 139.918H365.339C365.952 139.906 366.545 140.136 366.991 140.558C367.437 140.98 367.699 141.56 367.721 142.173V228.953C367.699 229.566 367.437 230.146 366.991 230.568C366.545 230.99 365.952 231.22 365.339 231.208H226.661Z" fill="#1B2F46"/>
<path id="Vector_23" d="M330.159 143.322H229.554C228.544 143.322 227.725 144.142 227.725 145.153V225.335C227.725 226.346 228.544 227.165 229.554 227.165H330.159C331.169 227.165 331.988 226.346 331.988 225.335V145.153C331.988 144.142 331.169 143.322 330.159 143.322Z" fill="#E3E3E3" stroke="white" stroke-miterlimit="10"/>
<path id="Vector_24" d="M230.107 143.535H329.861C330.425 143.535 330.966 143.759 331.365 144.159C331.764 144.558 331.988 145.099 331.988 145.663V148.259H227.98V145.663C227.98 145.099 228.204 144.558 228.603 144.159C229.002 143.759 229.543 143.535 230.107 143.535Z" fill="#9E9E9E"/>
<path id="Vector_25" d="M227.98 148.259H331.988V152.992H227.98V148.259ZM230.32 154.473H328.032V159.206H230.32V154.473ZM230.32 161.41H328.032V182.371H230.32V161.41ZM230.32 185.84H328.032V219.368H230.32V185.84Z" fill="white"/>
<path id="Vector_26" d="M302.806 148.898H240.614C239.674 148.898 238.913 149.66 238.913 150.6V150.634C238.913 151.574 239.674 152.337 240.614 152.337H302.806C303.746 152.337 304.508 151.574 304.508 150.634V150.6C304.508 149.66 303.746 148.898 302.806 148.898Z" fill="#E8E8E8" stroke="#B8B8B8" stroke-width="0.83" stroke-miterlimit="10"/>
<path id="Vector_27" d="M242.188 144.386H257.204C257.746 144.386 258.265 144.602 258.648 144.985C259.031 145.368 259.246 145.888 259.246 146.429V148.259H240.146V146.429C240.146 145.888 240.361 145.368 240.744 144.985C241.127 144.602 241.647 144.386 242.188 144.386Z" fill="white"/>
<path id="Vector_28" d="M360.617 147.366H303.359C302.725 147.366 302.211 147.88 302.211 148.515V219.845C302.211 220.48 302.725 220.994 303.359 220.994H360.617C361.251 220.994 361.765 220.48 361.765 219.845V148.515C361.765 147.88 361.251 147.366 360.617 147.366Z" fill="black" stroke="white" stroke-miterlimit="10"/>
<path id="Vector_29" d="M303.232 147.578H360.659C360.885 147.578 361.101 147.668 361.261 147.828C361.421 147.987 361.51 148.204 361.51 148.43V151.537H302.381V148.472C302.375 148.357 302.393 148.242 302.433 148.133C302.473 148.025 302.535 147.926 302.615 147.843C302.694 147.759 302.79 147.692 302.896 147.647C303.002 147.602 303.116 147.578 303.232 147.578Z" fill="#636363"/>
<path id="Vector_30" d="M230.32 146.812C230.884 146.812 231.341 146.355 231.341 145.791C231.341 145.227 230.884 144.77 230.32 144.77C229.756 144.77 229.299 145.227 229.299 145.791C229.299 146.355 229.756 146.812 230.32 146.812Z" fill="white"/>
<path id="Vector_31" d="M233.255 146.812C233.819 146.812 234.276 146.355 234.276 145.791C234.276 145.227 233.819 144.77 233.255 144.77C232.691 144.77 232.234 145.227 232.234 145.791C232.234 146.355 232.691 146.812 233.255 146.812Z" fill="white"/>
<path id="Vector_32" d="M236.19 146.812C236.754 146.812 237.211 146.355 237.211 145.791C237.211 145.227 236.754 144.77 236.19 144.77C235.626 144.77 235.169 145.227 235.169 145.791C235.169 146.355 235.626 146.812 236.19 146.812Z" fill="white"/>
<path id="Vector_33" d="M236.53 151.834C237.188 151.834 237.722 151.301 237.722 150.643C237.722 149.985 237.188 149.451 236.53 149.451C235.873 149.451 235.339 149.985 235.339 150.643C235.339 151.301 235.873 151.834 236.53 151.834Z" fill="#B8B8B8"/>
<path id="Vector_34" d="M233.34 151.834C233.998 151.834 234.531 151.301 234.531 150.643C234.531 149.985 233.998 149.451 233.34 149.451C232.682 149.451 232.149 149.985 232.149 150.643C232.149 151.301 232.682 151.834 233.34 151.834Z" fill="#B8B8B8"/>
<path id="Vector_35" d="M230.32 151.834C230.978 151.834 231.511 151.301 231.511 150.643C231.511 149.985 230.978 149.451 230.32 149.451C229.662 149.451 229.129 149.985 229.129 150.643C229.129 151.301 229.662 151.834 230.32 151.834Z" fill="#B8B8B8"/>
<path id="Vector_36" d="M231.851 155.239H242.061V158.325H231.851V155.239ZM232.106 187.287H266.648V190.372H232.106V187.287ZM232.106 192.394H302.211V194.484H232.106V192.394ZM232.106 195.203H302.211V197.293H232.106V195.203ZM232.106 198.054H302.211V200.144H232.106V198.054ZM232.106 200.906H302.211V202.996H232.106V200.906ZM232.106 203.8H302.211V205.89H232.106V203.8ZM232.106 206.651H302.211V208.741H232.106V206.651ZM232.106 209.46H302.211V211.55H232.106V209.46ZM232.106 212.312H302.211V214.402H232.106V212.312ZM232.106 215.163H302.211V217.253H232.106V215.163Z" fill="#B8B8B8"/>
<g id="textCode">
<path id="Vector_37" d="M304.55 157.835H340.836V160.014H304.55V157.835ZM304.55 162.091H345.09V164.27H304.55V162.091ZM304.55 166.305H350.578V168.484H304.55V166.305ZM304.55 170.561H336.582V172.74H304.55V170.561ZM304.55 175.881H356.661V178.06H304.55V175.881ZM304.55 180.094H354.917V182.273H304.55V180.094ZM304.55 184.35H353.683V186.529H304.55V184.35ZM304.55 191.458H355.767V193.637H304.55V191.458ZM304.55 195.288H346.664V197.467H304.55V195.288ZM304.55 199.587H350.578V201.766H304.55V199.587ZM304.55 203.417H342.41V205.596H304.55V203.417Z" fill="#D4D4D4"/>
</g>
<path id="Vector_38" fill-rule="evenodd" clip-rule="evenodd" d="M252.865 164.007L230.32 182.35H283.664L252.865 164.007Z" fill="#8F8F8F"/>
<path id="Vector_39" d="M261.501 164.007L238.913 182.35H292.257L261.501 164.007Z" fill="black"/>
<path id="Vector_40" d="M293.618 165.071L262.564 182.35H302.211L293.618 165.071Z" fill="black"/>
<path id="Vector_41" d="M384.396 156.005H397.966V257.736H384.396V156.005Z" fill="#3B3B3B"/>
<path id="Vector_42" d="M384.396 177.796H391.16V257.732H384.396V177.796ZM384.396 156.005H391.16V164.262H384.396V156.005Z" fill="#2E2E2E"/>
<path id="Vector_43" d="M370.826 164.219H395.584C397.152 164.219 398.656 164.843 399.765 165.952C400.874 167.061 401.497 168.566 401.497 170.135V171.923C401.497 173.492 400.874 174.996 399.765 176.106C398.656 177.215 397.152 177.838 395.584 177.838H370.826V164.219Z" fill="#3B3B3B"/>
</g>
<g id="laptop">
<path id="Vector_44" d="M179.103 196.905H93.4716C91.6156 196.905 90.111 198.411 90.111 200.267V250.777C90.111 252.634 91.6156 254.14 93.4716 254.14H179.103C180.959 254.14 182.463 252.634 182.463 250.777V200.267C182.463 198.411 180.959 196.905 179.103 196.905Z" fill="#D4D4D4"/>
<path id="Vector_45" fill-rule="evenodd" clip-rule="evenodd" d="M135.67 243.806C117.081 243.806 100.533 238.912 90.111 231.294V250.829C90.111 251.72 90.4651 252.575 91.0953 253.206C91.7255 253.837 92.5803 254.191 93.4716 254.191H179.145C180.037 254.191 180.891 253.837 181.522 253.206C182.152 252.575 182.506 251.72 182.506 250.829V230.4C172.126 238.486 155.026 243.806 135.67 243.806Z" fill="#C4C4C4"/>
<path id="Vector_46" d="M118.229 246.743H154.345V257.808H118.229V246.743Z" fill="#575757"/>
<path id="Vector_47" d="M118.229 246.913H154.345V250.552H118.229V246.913Z" fill="#2E2E2E"/>
<path id="Vector_48" d="M136.308 230.315C138.963 230.315 141.115 228.162 141.115 225.505C141.115 222.849 138.963 220.696 136.308 220.696C133.654 220.696 131.502 222.849 131.502 225.505C131.502 228.162 133.654 230.315 136.308 230.315Z" fill="#A8A8A8"/>
<path id="Vector_49" d="M182.463 201.927H185.654V204.383H182.463V201.927Z" fill="#666666"/>
<path id="Vector_50" fill-rule="evenodd" clip-rule="evenodd" d="M185.654 202.566C185.654 202.566 198.203 202.012 198.075 211.886C197.947 221.76 186.717 233.251 188.078 240.955C189.44 248.658 196.586 257.766 196.586 257.766H194.672C194.672 257.766 187.61 249.254 186.547 240.614C185.611 232.868 196.586 219.121 196.671 211.546C196.756 203.97 185.696 203.8 185.696 203.8L185.654 202.566Z" fill="#666666"/>
</g>
<g id="personInChair">
<path id="Vector_51" d="M291.831 356.59H300.892V371.771H291.831V356.59Z" fill="white"/>
<path id="Vector_52" d="M272.093 357.739H320.673C321.496 357.739 322.286 357.411 322.868 356.829C323.451 356.246 323.778 355.456 323.778 354.632H268.988C268.988 355.456 269.315 356.246 269.897 356.829C270.48 357.411 271.269 357.739 272.093 357.739Z" fill="#303030"/>
<path id="Vector_53" d="M290.342 371.443H302.466V396.004H290.342V371.443Z" fill="#5E5E5E"/>
<path id="Vector_54" d="M296 176.987L278.006 180.605C278.006 180.605 280.346 187.585 285.067 191.968C289.789 196.352 296 194.139 296 194.139C296 194.139 302.211 196.352 306.933 191.968C311.654 187.585 313.994 180.605 313.994 180.605L296 176.987Z" fill="#272332"/>
<path id="Vector_55" d="M277.751 166.688C277.751 166.688 275.411 153.75 270.987 157.069C268.265 159.112 272.391 165.794 272.391 167.837C272.476 172.689 275.071 174.093 276.9 171.71C277.437 171.004 277.795 170.178 277.943 169.304C278.091 168.429 278.025 167.531 277.751 166.688ZM314.207 166.688C314.207 166.688 316.589 153.75 320.97 157.069C323.693 159.112 319.567 165.794 319.567 167.837C319.482 172.689 316.887 174.093 315.057 171.71C314.521 171.004 314.163 170.178 314.015 169.304C313.867 168.429 313.932 167.531 314.207 166.688Z" fill="#FDC8A9"/>
<path id="Vector_56" d="M277.751 166.688C277.751 166.688 275.411 153.75 270.987 157.069C268.265 159.112 272.391 165.794 272.391 167.837C272.476 172.689 275.071 174.093 276.9 171.71C277.437 171.004 277.795 170.178 277.943 169.304C278.091 168.429 278.025 167.531 277.751 166.688Z" fill="url(#paint0_linear)"/>
<path id="Vector_57" d="M314.207 166.688C314.207 166.688 316.589 153.75 320.97 157.069C323.693 159.112 319.567 165.794 319.567 167.837C319.482 172.689 316.887 174.093 315.058 171.71C314.521 171.004 314.163 170.178 314.015 169.304C313.867 168.429 313.932 167.531 314.207 166.688Z" fill="url(#paint1_linear)"/>
<path id="Vector_58" d="M321.013 157.069C320.12 156.388 319.269 156.388 318.546 156.856C319.164 157.934 319.524 159.141 319.598 160.382C319.672 161.622 319.457 162.863 318.971 164.007C318.431 165.107 318.154 166.318 318.161 167.544C318.168 168.77 318.46 169.978 319.014 171.071C319.393 170.051 319.58 168.968 319.567 167.879C319.609 165.794 323.693 159.112 321.013 157.069ZM270.987 157.069C271.88 156.388 272.731 156.388 273.454 156.856C272.836 157.934 272.476 159.141 272.402 160.382C272.328 161.622 272.543 162.863 273.029 164.007C273.569 165.107 273.847 166.318 273.839 167.544C273.832 168.77 273.54 169.978 272.986 171.071C272.607 170.051 272.42 168.968 272.433 167.879C272.391 165.794 268.265 159.112 270.987 157.069Z" fill="#FDC8A9"/>
<path id="Vector_59" d="M302.849 191.5L308.719 186.989C311.139 185.176 313.137 182.859 314.576 180.2C316.015 177.54 316.862 174.6 317.057 171.582L318.291 149.196C318.971 136.853 309.017 126.256 296.043 126.256C283.026 126.256 273.114 136.853 273.795 149.196L275.028 171.582C275.218 174.597 276.058 177.535 277.49 180.194C278.922 182.853 280.912 185.171 283.323 186.989L289.194 191.5C290.295 192.335 291.641 192.783 293.022 192.777H299.063C300.43 192.774 301.759 192.326 302.849 191.5Z" fill="#EC9D90"/>
<path id="Vector_60" d="M309.825 178.647L296 180.69L282.175 178.647C282.175 178.647 284.004 190.223 278.261 199.714C278.061 200.045 277.994 200.44 278.073 200.819C278.152 201.198 278.371 201.533 278.687 201.757C281.111 203.417 287.194 206.822 296 206.864C304.806 206.907 310.889 203.417 313.313 201.757C313.629 201.533 313.849 201.198 313.927 200.819C314.006 200.44 313.939 200.045 313.739 199.714C307.996 190.223 309.825 178.647 309.825 178.647Z" fill="#FDC8A9"/>
<path id="Vector_61" d="M296 126.299C285.578 126.299 277.41 132.172 274.816 141.237C274.688 141.705 274.263 143.067 274.178 143.535C273.788 145.381 273.645 147.27 273.752 149.153C273.71 149.734 273.71 150.317 273.752 150.898L274.986 167.624C275.241 170.859 280.941 182.861 287.747 187.968C288.469 188.517 289.35 188.816 290.257 188.819H301.743C302.65 188.816 303.531 188.517 304.253 187.968C311.059 182.861 316.759 170.859 317.014 167.624L318.248 150.898C318.29 150.317 318.29 149.734 318.248 149.153C318.929 136.811 308.974 126.299 296 126.299Z" fill="#36323E"/>
<path id="Vector_62" d="M317.227 135.023C317.945 135.282 318.641 135.595 319.311 135.96C319.311 135.96 316.546 122 298.042 122C287.322 122 281.196 128.469 277.963 133.874C276.522 136.126 275.459 138.599 274.816 141.194C276.833 139.632 279.188 138.564 281.692 138.076C284.197 137.589 286.78 137.695 289.236 138.386C291.959 139.109 294.681 140.173 297.531 140.13C302.806 140.088 310.208 135.279 318.163 139.535C317.988 138.791 317.746 138.064 317.44 137.364L318.163 137.705C317.945 136.781 317.632 135.882 317.227 135.023Z" fill="#272332"/>
<path id="Vector_63" d="M274.986 167.624C275.326 172.135 291.236 188.308 296 188.308C305.656 188.308 316.674 172.135 317.014 167.624" fill="#36323E"/>
<path id="Vector_64" d="M235.339 396H263.16L259.587 350.844L273.071 348.886L295.957 338.8L318.843 348.886L332.328 350.844L328.84 396H356.661L363.637 352.078C365.977 339.098 361.85 325.606 353.13 317.818L335.519 306.667V306.369C317.227 314.838 295.617 317.733 275.156 315.477C269.966 314.455 265.329 312.37 260.14 309.774C258.651 308.88 257.077 308.071 255.503 307.305L238.87 317.818C230.15 325.606 226.023 339.098 228.363 352.078L235.339 396Z" fill="#0B253E"/>
<g id="Group_2">
<path id="Vector_65" d="M380.484 234.698L340.497 208.779C332.807 203.712 324.036 200.519 314.889 199.459L308.04 198.693C300.038 197.812 291.964 197.812 283.963 198.693L277.114 199.459C267.967 200.519 259.196 203.712 251.505 208.779L211.519 234.698C208.03 237.167 205.989 241.976 206.542 247.083C207.18 253.297 211.604 257.851 216.708 257.851H252.271L256.61 260.788V306.667L255.632 307.305C257.206 308.114 258.78 308.923 260.268 309.774C265.458 312.37 270.095 314.413 275.285 315.477C295.703 317.733 317.356 314.838 335.648 306.369V260.788L339.987 257.851H375.549C380.611 257.851 385.078 253.297 385.716 247.083C386.014 241.976 383.972 237.124 380.484 234.698Z" fill="#294E78"/>
<path id="Vector_66" d="M380.483 234.698L360.957 222.058C363.935 230.144 363.084 239.465 359.468 247.168C357.384 251.382 353.853 255.425 349.472 257.851H375.335C380.397 257.851 384.864 253.297 385.502 247.083C386.013 241.976 383.971 237.124 380.483 234.698Z" fill="#DEAF94"/>
<path id="Vector_67" d="M380.483 234.698L360.957 222.058C363.935 230.144 363.084 239.465 359.468 247.168C359.256 247.594 356.703 251.424 356.491 251.807L373.336 257.851H375.293C380.355 257.851 384.822 253.297 385.46 247.083C386.013 241.976 383.971 237.124 380.483 234.698Z" fill="#FDC8A9"/>
<path id="Vector_68" d="M211.517 234.698L231.043 222.058C228.065 230.144 228.916 239.465 232.532 247.168C234.616 251.382 238.147 255.425 242.528 257.851H216.665C211.603 257.851 207.136 253.297 206.498 247.083C205.987 241.976 208.029 237.124 211.517 234.698Z" fill="#DEAF94"/>
<path id="Vector_69" d="M211.517 234.698L231.043 222.058C228.065 230.144 228.916 239.465 232.532 247.168C232.744 247.594 235.297 251.424 235.509 251.807L218.664 257.851H216.707C211.645 257.851 207.178 253.297 206.54 247.083C205.987 241.976 208.029 237.124 211.517 234.698Z" fill="#FDC8A9"/>
</g>
<path id="Vector_70" d="M349.514 338.034L349.004 337.651L342.878 333.224H247.888L241.805 337.651L241.295 338.034C240.937 338.347 240.649 338.733 240.451 339.166C240.253 339.599 240.149 340.069 240.146 340.545V345.95C240.146 348.252 241.061 350.461 242.688 352.089C244.315 353.717 246.523 354.632 248.824 354.632H341.985C344.286 354.632 346.494 353.717 348.121 352.089C349.748 350.461 350.663 348.252 350.663 345.95V340.545C350.66 340.069 350.556 339.599 350.358 339.166C350.16 338.733 349.872 338.347 349.514 338.034Z" fill="#647278"/>
<path id="Vector_71" d="M335.178 354.632H254.567C252.975 354.636 251.441 354.037 250.273 352.955C249.105 351.874 248.39 350.389 248.271 348.801L239.423 231.379C239.352 230.51 239.463 229.635 239.747 228.811C240.032 227.987 240.485 227.231 241.076 226.591C241.668 225.951 242.386 225.44 243.186 225.092C243.985 224.744 244.847 224.566 245.719 224.569H347.855C348.742 224.564 349.621 224.746 350.433 225.105C351.245 225.463 351.971 225.989 352.566 226.648C353.16 227.307 353.609 228.084 353.882 228.929C354.155 229.774 354.247 230.666 354.151 231.549L341.432 348.971C341.274 350.522 340.547 351.958 339.392 353.004C338.237 354.049 336.736 354.629 335.178 354.632Z" fill="#8B9EA6"/>
<path id="Vector_72" d="M295.915 326.542C275.496 326.542 257.204 316.285 244.911 300.113L248.569 348.759C248.687 350.347 249.402 351.831 250.571 352.913C251.739 353.995 253.273 354.594 254.865 354.589H335.476C337.035 354.598 338.541 354.029 339.704 352.991C340.867 351.954 341.604 350.521 341.772 348.971L347.089 299.943C334.753 316.2 316.419 326.542 295.915 326.542Z" fill="#7A8B91"/>
</g>
</g>
</g>
<g id="myPhoneIcon">
<path id="Rectangle 7.1" d="M436.474 222.064L460.361 221.089C461.686 221.035 462.696 222.261 462.389 223.55L454.623 256.185H427.167L436.474 222.064Z" fill="#A8A8A8"/>
<path id="Rectangle 7" d="M433.289 222.064L459.815 221.148L451.438 256.185H423.982L433.289 222.064Z" fill="#C4C4C4"/>
<path id="Rectangle 8.1" d="M423 252H458C460.761 252 463 254.239 463 257V257H423V252Z" fill="#9A9A9A"/>
<path id="Rectangle 8" d="M420 254C420 252.895 420.895 252 422 252H449V257H420V254Z" fill="#F7F7F7"/>
<rect id="Rectangle 9.1" x="438" y="250" width="5" height="2" fill="#5A5757"/>
<rect id="Rectangle 9" x="437" y="250" width="5" height="2" fill="#777777"/>
<path id="Rectangle 10" d="M437.438 212.891C437.765 211.59 438.916 210.664 440.256 210.623L456.681 210.12C458.66 210.06 460.153 211.898 459.689 213.822L451.371 248.314C451.046 249.662 449.84 250.611 448.454 250.611H431.81C429.857 250.611 428.424 248.774 428.9 246.88L437.438 212.891Z" fill="black"/>
<path id="Subtract" fill-rule="evenodd" clip-rule="evenodd" d="M441.479 211.59L440.105 211.637C439.219 211.668 438.458 212.278 438.237 213.137L429.644 246.482C429.318 247.748 430.274 248.981 431.581 248.981L448.288 248.981C449.212 248.981 450.016 248.348 450.232 247.449L458.385 213.539C458.694 212.253 457.693 211.027 456.371 211.073L453.762 211.163L453.499 212.239C453.391 212.68 453 212.993 452.547 213.002L442.389 213.199C441.743 213.211 441.255 212.617 441.392 211.986L441.479 211.59Z" fill="#4D4D4D"/>
</g>
</g>
</g>
<defs>
<filter id="filter0_d" x="229.893" y="25.4132" width="140.994" height="37.43" filterUnits="userSpaceOnUse" color-interpolation-filters="sRGB">
<feFlood flood-opacity="0" result="BackgroundImageFix"/>
<feColorMatrix in="SourceAlpha" type="matrix" values="0 0 0 0 0 0 0 0 0 0 0 0 0 0 0 0 0 0 127 0"/>
<feOffset dx="3" dy="4"/>
<feGaussianBlur stdDeviation="2"/>
<feColorMatrix type="matrix" values="0 0 0 0 0 0 0 0 0 0 0 0 0 0 0 0 0 0 0.25 0"/>
<feBlend mode="normal" in2="BackgroundImageFix" result="effect1_dropShadow"/>
<feBlend mode="normal" in="SourceGraphic" in2="effect1_dropShadow" result="shape"/>
</filter>
<filter id="filter1_d" x="22.0073" y="106.139" width="125.091" height="52.9068" filterUnits="userSpaceOnUse" color-interpolation-filters="sRGB">
<feFlood flood-opacity="0" result="BackgroundImageFix"/>
<feColorMatrix in="SourceAlpha" type="matrix" values="0 0 0 0 0 0 0 0 0 0 0 0 0 0 0 0 0 0 127 0"/>
<feOffset dx="-2" dy="4"/>
<feGaussianBlur stdDeviation="2"/>
<feColorMatrix type="matrix" values="0 0 0 0 0 0 0 0 0 0 0 0 0 0 0 0 0 0 0.25 0"/>
<feBlend mode="normal" in2="BackgroundImageFix" result="effect1_dropShadow"/>
<feBlend mode="normal" in="SourceGraphic" in2="effect1_dropShadow" result="shape"/>
</filter>
<filter id="filter2_d" x="461.964" y="122.395" width="120.927" height="52.4545" filterUnits="userSpaceOnUse" color-interpolation-filters="sRGB">
<feFlood flood-opacity="0" result="BackgroundImageFix"/>
<feColorMatrix in="SourceAlpha" type="matrix" values="0 0 0 0 0 0 0 0 0 0 0 0 0 0 0 0 0 0 127 0"/>
<feOffset dx="2" dy="4"/>
<feGaussianBlur stdDeviation="2"/>
<feColorMatrix type="matrix" values="0 0 0 0 0 0 0 0 0 0 0 0 0 0 0 0 0 0 0.25 0"/>
<feBlend mode="normal" in2="BackgroundImageFix" result="effect1_dropShadow"/>
<feBlend mode="normal" in="SourceGraphic" in2="effect1_dropShadow" result="shape"/>
</filter>
<linearGradient id="paint0_linear" x1="274.054" y1="172.352" x2="274.054" y2="158.125" gradientUnits="userSpaceOnUse">
<stop stop-color="#EC9D90"/>
<stop offset="1" stop-color="#EC9D90" stop-opacity="0.2"/>
</linearGradient>
<linearGradient id="paint1_linear" x1="5516.11" y1="2087.44" x2="5516.11" y2="1541.84" gradientUnits="userSpaceOnUse">
<stop stop-color="#EC9D90"/>
<stop offset="1" stop-color="#EC9D90" stop-opacity="0.2"/>
</linearGradient>
<clipPath id="clip0">
<rect width="512" height="274" fill="white" transform="translate(40 122)"/>
</clipPath>
</defs>
</svg>
