<svg width="606" height="396" viewBox="0 0 606 396" fill="none" xmlns="http://www.w3.org/2000/svg">
<g id="hero">
<g id="bubbles">
<g id="myAbout" class="svgHeroBtn">
<path id="Rectangle 6.3" d="M219.882 11.2761C220.007 9.62399 221.449 8.38657 223.101 8.51221L306.734 14.8727L390.368 21.2332C392.02 21.3589 393.257 22.8 393.132 24.4521L388.621 83.7637C388.495 85.4158 387.054 86.6532 385.402 86.5276L325.805 81.995C324.78 81.9171 323.787 82.3691 323.172 83.1929L299.082 115.494L281.966 80.1565C281.5 79.1952 280.558 78.554 279.493 78.473L218.135 73.8065C216.483 73.6809 215.245 72.2398 215.371 70.5877L219.882 11.2761Z" fill="#0A9C70"/>
<path id="Rectangle 6" d="M211 2.99136C211.126 1.33928 212.567 0.101855 214.219 0.227499L300.501 6.78939L386.782 13.3513C388.434 13.4769 389.672 14.9181 389.546 16.5701L384.867 78.091C384.742 79.743 383.301 80.9805 381.648 80.8548L320.09 76.1732C319.064 76.0951 318.069 76.5486 317.455 77.3744L292.589 110.815L274.935 74.2381C274.47 73.2748 273.527 72.632 272.46 72.5508L209.085 67.731C207.433 67.6054 206.196 66.1643 206.321 64.5122L211 2.99136Z" fill="#15CC95"/>
<g id="About Me" filter="url(#filter0_d)">
<path d="M242.373 41.659L236.415 41.2059L234.928 45.261L230.893 44.9542L238.905 25.5998L242.381 25.8642L247.252 46.1983L243.216 45.8914L242.373 41.659ZM237.604 38.0193L241.721 38.3324L240.245 30.8709L237.604 38.0193ZM263.042 40.1322C262.959 41.2319 262.759 42.2314 262.444 43.1306C262.138 44.0306 261.719 44.7939 261.187 45.4208C260.654 46.0476 260.015 46.52 259.269 46.838C258.523 47.1469 257.673 47.2651 256.719 47.1925C255.856 47.1269 255.118 46.9108 254.506 46.5443C253.904 46.1695 253.398 45.6739 252.987 45.0577L252.691 46.612L249.283 46.3528L250.875 25.4132L254.665 25.7015L254.093 33.2266C254.568 32.7508 255.111 32.3946 255.724 32.1577C256.345 31.9216 257.055 31.834 257.855 31.8948C258.818 31.9681 259.645 32.2183 260.335 32.6455C261.033 33.0735 261.598 33.6375 262.03 34.3375C262.461 35.0376 262.759 35.8602 262.925 36.8051C263.101 37.7417 263.147 38.7553 263.064 39.8459L263.042 40.1322ZM259.274 39.5577C259.32 38.9579 259.318 38.3864 259.267 37.8433C259.217 37.3001 259.094 36.82 258.897 36.4028C258.71 35.9773 258.435 35.6318 258.071 35.3665C257.707 35.1012 257.239 34.9467 256.667 34.9032C255.976 34.8506 255.401 34.9532 254.943 35.2109C254.494 35.4692 254.131 35.8439 253.856 36.3348L253.41 42.2104C253.607 42.7374 253.909 43.1625 254.314 43.4858C254.728 43.8098 255.289 43.9987 255.998 44.0527C256.571 44.0962 257.052 44.0231 257.441 43.8333C257.831 43.6344 258.15 43.3479 258.397 42.9737C258.655 42.5911 258.85 42.1351 258.981 41.6058C259.114 41.0674 259.204 40.4801 259.252 39.844L259.274 39.5577ZM266.022 40.0709C266.104 38.9985 266.334 38.0196 266.712 37.1343C267.091 36.2398 267.601 35.4788 268.243 34.8512C268.894 34.2243 269.661 33.7525 270.544 33.4357C271.437 33.1197 272.437 33.0038 273.546 33.0881C274.655 33.1725 275.626 33.4383 276.461 33.8857C277.295 34.3331 277.982 34.9155 278.522 35.6329C279.07 36.3511 279.464 37.1809 279.704 38.1223C279.943 39.0546 280.023 40.057 279.941 41.1294L279.919 41.4157C279.837 42.4972 279.606 43.4852 279.228 44.3796C278.85 45.265 278.34 46.0214 277.698 46.649C277.056 47.2767 276.289 47.7485 275.396 48.0645C274.504 48.3715 273.509 48.4831 272.409 48.3995C271.3 48.3152 270.324 48.0535 269.48 47.6146C268.645 47.1672 267.954 46.5844 267.405 45.8663C266.866 45.1488 266.476 44.3239 266.236 43.3916C265.997 42.4502 265.918 41.4387 266 40.3572L266.022 40.0709ZM269.79 40.6454C269.743 41.2634 269.758 41.8496 269.835 42.4038C269.912 42.949 270.063 43.4358 270.286 43.8641C270.51 44.2834 270.813 44.6263 271.195 44.893C271.586 45.1604 272.068 45.3159 272.64 45.3595C273.195 45.4016 273.681 45.3198 274.099 45.1139C274.516 44.908 274.863 44.6144 275.139 44.2332C275.425 43.8436 275.647 43.3852 275.806 42.8579C275.966 42.3216 276.069 41.7445 276.116 41.1265L276.138 40.8402C276.183 40.2404 276.167 39.6678 276.09 39.1226C276.013 38.5774 275.862 38.0907 275.639 37.6624C275.425 37.2347 275.126 36.8875 274.745 36.6208C274.363 36.3541 273.885 36.199 273.313 36.1555C272.749 36.1126 272.259 36.1941 271.841 36.4C271.423 36.6059 271.071 36.9036 270.786 37.2933C270.5 37.6829 270.278 38.1413 270.119 38.6685C269.96 39.1958 269.858 39.7593 269.812 40.3591L269.79 40.6454ZM292.301 47.5403C291.745 48.2384 291.097 48.7696 290.356 49.1337C289.625 49.4986 288.841 49.6492 288.005 49.5856C287.241 49.5275 286.55 49.3562 285.932 49.0715C285.314 48.7868 284.797 48.3727 284.381 47.8292C283.966 47.2766 283.662 46.5953 283.467 45.7853C283.283 44.9668 283.233 43.9987 283.318 42.8808L283.982 34.156L287.771 34.4442L287.106 43.1963C287.06 43.7961 287.063 44.3036 287.113 44.7188C287.173 45.1347 287.289 45.4772 287.46 45.7461C287.632 46.006 287.869 46.2023 288.17 46.3348C288.47 46.4674 288.843 46.5506 289.289 46.5845C290.043 46.6418 290.667 46.5476 291.161 46.3018C291.656 46.047 292.045 45.6789 292.328 45.1977L293.115 34.8506L296.919 35.1399L295.797 49.8903L292.362 49.629L292.301 47.5403ZM307.854 32.3381L307.579 35.9507L313.087 36.3695L312.874 39.1642L307.367 38.7453L306.885 45.0844C306.844 45.6207 306.869 46.075 306.959 46.4475C307.06 46.8117 307.215 47.1114 307.426 47.3468C307.637 47.5731 307.898 47.7438 308.209 47.8589C308.53 47.9747 308.89 48.0478 309.29 48.0782C309.58 48.1003 309.877 48.1091 310.179 48.1047C310.49 48.1009 310.783 48.0912 311.059 48.0756C311.344 48.0516 311.606 48.0258 311.846 47.9984C312.095 47.9716 312.307 47.942 312.483 47.9097L312.654 50.5415C312.378 50.676 312.059 50.7888 311.695 50.88C311.333 50.9621 310.949 51.0243 310.543 51.0666C310.138 51.1089 309.716 51.1316 309.277 51.1348C308.846 51.1478 308.422 51.1383 308.004 51.1065C307.195 51.045 306.466 50.8845 305.819 50.625C305.181 50.3572 304.643 49.9826 304.204 49.5013C303.775 49.0116 303.46 48.4118 303.258 47.7017C303.057 46.9826 302.993 46.1367 303.067 45.1643L303.577 38.4571L300.21 38.201L300.422 35.4064L303.79 35.6624L304.064 32.0498L307.854 32.3381ZM339.117 33.2212L340.432 40.8212L343.139 33.527L347.897 33.8888L346.387 53.7378L342.87 53.4703L343.317 47.5947L344.186 38.3234L340.927 46.7411L339.033 46.597L337.329 38.172L336.814 47.1001L336.367 52.9757L332.85 52.7082L334.36 32.8593L339.117 33.2212ZM356.945 54.815C355.809 54.7286 354.792 54.4638 353.893 54.0207C352.995 53.5776 352.238 53.0127 351.623 52.326C351.008 51.6303 350.552 50.8369 350.254 49.9459C349.966 49.0464 349.86 48.1014 349.935 47.1108L349.977 46.5655C350.062 45.4385 350.318 44.425 350.743 43.525C351.168 42.6158 351.725 41.8492 352.412 41.225C353.099 40.6009 353.893 40.1357 354.794 39.8294C355.695 39.5231 356.659 39.409 357.686 39.4871C358.749 39.568 359.681 39.8171 360.481 40.2345C361.291 40.6434 361.958 41.1877 362.482 41.8675C363.015 42.5479 363.398 43.3494 363.629 44.2719C363.861 45.1854 363.936 46.1829 363.854 47.2644L363.732 48.873L353.726 48.112C353.76 48.6174 353.871 49.0875 354.057 49.5221C354.253 49.9484 354.513 50.3246 354.835 50.6508C355.158 50.9769 355.535 51.2388 355.968 51.4362C356.401 51.6337 356.881 51.7524 357.408 51.7925C357.781 51.8209 358.152 51.8125 358.521 51.7675C358.899 51.7231 359.261 51.6455 359.608 51.5348C359.955 51.4149 360.282 51.2616 360.589 51.0746C360.896 50.8877 361.169 50.6617 361.408 50.3965L363.148 52.5855C362.886 52.9038 362.552 53.2121 362.145 53.5102C361.748 53.8 361.281 54.0524 360.744 54.2675C360.216 54.4741 359.633 54.6309 358.994 54.7377C358.355 54.8445 357.672 54.8703 356.945 54.815ZM357.425 42.5524C356.998 42.5199 356.602 42.5674 356.235 42.695C355.87 42.8134 355.54 43.0032 355.246 43.2642C354.961 43.5259 354.713 43.8452 354.501 44.2222C354.29 44.5991 354.12 45.025 353.993 45.4998L360.209 45.9726L360.232 45.6726C360.244 45.2714 360.196 44.8883 360.086 44.5235C359.977 44.1587 359.805 43.8394 359.57 43.5656C359.335 43.2826 359.037 43.0543 358.676 42.8806C358.324 42.6984 357.907 42.589 357.425 42.5524Z" fill="white"/>
</g>
</g>
<g id="myWork" class="svgHeroBtn">
<path id="Rectangle 6.3_2" d="M2.74831 129.456C2.39166 127.838 3.4142 126.237 5.03221 125.88L141.013 95.9066C142.631 95.5499 144.232 96.5725 144.589 98.1905L155.118 145.957C155.474 147.575 154.452 149.176 152.834 149.533L87.773 163.874C86.155 164.23 85.1325 165.831 85.4891 167.449L91.4375 194.435L50.3538 172.846C49.727 172.517 49.0039 172.42 48.3125 172.572L16.8528 179.506C15.2348 179.863 13.634 178.841 13.2773 177.223L2.74831 129.456Z" fill="#0A9C70"/>
<path id="Rectangle 6.1" d="M4.90249 118.979C4.54584 117.361 5.56837 115.76 7.18639 115.404L151.262 83.6458C152.88 83.2891 154.481 84.3117 154.837 85.9297L166.041 136.757C166.398 138.375 165.375 139.976 163.757 140.332L94.649 155.565C93.031 155.922 92.0084 157.523 92.3651 159.141L98.6897 187.834L55.2061 164.984C54.5794 164.654 53.8563 164.557 53.1648 164.71L19.6815 172.09C18.0635 172.447 16.4627 171.424 16.1061 169.806L4.90249 118.979Z" fill="#15CC95"/>
<g id="My Work" filter="url(#filter1_d)">
<path d="M32.667 128.767L36.1193 135.664L36.6056 127.899L41.2653 126.872L45.5502 146.312L42.1056 147.071L40.8372 141.316L38.9932 132.189L38.3031 141.189L36.4472 141.598L32.3836 134.024L34.4686 142.72L35.737 148.475L32.2923 149.234L28.0074 129.794L32.667 128.767ZM53.7203 138.155L54.4889 139.609L56.1445 128.828L60.2434 127.925L56.5746 146.149C56.4948 146.55 56.3729 146.992 56.209 147.476C56.0539 147.958 55.8253 148.424 55.523 148.873C55.2207 149.323 54.8211 149.733 54.3241 150.104C53.8361 150.472 53.2183 150.739 52.4706 150.904C52.2926 150.943 52.1259 150.971 51.9707 150.986C51.8174 151.011 51.6666 151.025 51.5183 151.03C51.372 151.044 51.2237 151.048 51.0734 151.044C50.934 151.047 50.7793 151.044 50.6093 151.034L50.4393 148.104C50.5907 148.07 50.783 148.033 51.0164 147.991C51.2606 147.955 51.454 147.922 51.5964 147.891C51.8901 147.826 52.1286 147.68 52.3119 147.453C52.5041 147.224 52.6567 146.985 52.7699 146.736C52.883 146.487 52.9689 146.263 53.0276 146.063C53.0862 145.864 53.1334 145.76 53.169 145.752L53.6927 143.873L44.5289 131.389L48.5877 130.494L53.7203 138.155ZM89.4145 128.537L88.2487 116.516L91.6934 115.756L93.2814 135.79L89.8901 136.538L85.5167 125.462L86.2719 137.335L82.8807 138.083L75.9254 119.232L79.3567 118.476L83.3086 129.799L82.4008 117.805L85.0845 117.213L89.4145 128.537ZM96.0391 127.468C95.8075 126.418 95.745 125.415 95.8514 124.458C95.9559 123.492 96.2248 122.616 96.6582 121.83C97.1005 121.042 97.6987 120.369 98.453 119.81C99.2162 119.25 100.141 118.85 101.227 118.611C102.313 118.372 103.32 118.346 104.248 118.533C105.176 118.721 106.001 119.08 106.725 119.611C107.458 120.14 108.074 120.821 108.575 121.653C109.074 122.477 109.439 123.413 109.671 124.464L109.733 124.744C109.966 125.803 110.031 126.816 109.926 127.781C109.82 128.738 109.55 129.61 109.116 130.396C108.683 131.182 108.085 131.855 107.322 132.416C106.556 132.967 105.635 133.361 104.558 133.599C103.472 133.838 102.462 133.869 101.527 133.693C100.599 133.505 99.7688 133.147 99.0361 132.618C98.3124 132.087 97.7011 131.409 97.2023 130.586C96.7015 129.754 96.3343 128.808 96.1009 127.749L96.0391 127.468ZM99.8125 126.931C99.9459 127.536 100.129 128.093 100.363 128.601C100.594 129.101 100.879 129.524 101.216 129.869C101.552 130.206 101.941 130.447 102.384 130.592C102.835 130.735 103.341 130.745 103.902 130.621C104.445 130.502 104.887 130.283 105.227 129.965C105.568 129.647 105.815 129.266 105.969 128.822C106.13 128.366 106.211 127.863 106.211 127.312C106.209 126.753 106.141 126.17 106.008 125.565L105.946 125.285C105.816 124.697 105.636 124.154 105.404 123.654C105.173 123.154 104.888 122.732 104.551 122.386C104.222 122.039 103.837 121.792 103.394 121.647C102.951 121.502 102.45 121.491 101.889 121.615C101.337 121.737 100.891 121.956 100.55 122.274C100.209 122.592 99.9587 122.978 99.7978 123.434C99.6368 123.889 99.5564 124.392 99.5564 124.943C99.5565 125.494 99.6212 126.063 99.7507 126.65L99.8125 126.931ZM121.721 114.093C122.282 113.97 122.807 113.896 123.296 113.872C123.793 113.837 124.197 113.832 124.511 113.857L124.779 117.676C124.264 117.668 123.742 117.694 123.214 117.754C122.693 117.804 122.201 117.88 121.738 117.982C120.697 118.211 119.904 118.596 119.36 119.136C118.826 119.674 118.485 120.351 118.338 121.167L120.251 129.846L116.539 130.664L113.355 116.218L116.813 115.455L117.508 117.78C117.915 116.832 118.477 116.036 119.193 115.393C119.908 114.74 120.751 114.307 121.721 114.093ZM135.131 120.308L133.793 122.241L134.764 126.647L131.052 127.465L126.532 106.957L130.244 106.139L132.828 117.861L133.667 116.332L136.693 111.073L141.153 110.09L137.033 117.312L145.098 124.369L140.545 125.372L135.131 120.308Z" fill="white"/>
</g>
</g>
<g id="myResume" class="svgHeroBtn">
<path id="Rectangle 6.3_3" d="M602.981 172.367C603.367 170.756 602.373 169.137 600.761 168.752L530.945 152.055L461.129 135.358C459.518 134.972 457.899 135.966 457.514 137.577L445.756 186.74C445.371 188.351 446.365 189.97 447.976 190.355L472.344 196.183C473.955 196.568 474.949 198.187 474.564 199.798L466.892 231.876L516.825 207.524C517.45 207.219 518.162 207.141 518.838 207.302L587.608 223.749C589.22 224.135 590.838 223.141 591.224 221.529L602.981 172.367Z" fill="#0A9C70"/>
<path id="Rectangle 6.2" d="M599.856 164.708C600.241 163.096 599.248 161.478 597.636 161.092L527.82 144.395L458.004 127.698C456.393 127.312 454.774 128.306 454.388 129.918L442.631 179.08C442.246 180.691 443.239 182.31 444.851 182.695L469.218 188.523C470.83 188.908 471.824 190.527 471.438 192.139L463.767 224.216L513.7 199.864C514.325 199.559 515.037 199.481 515.713 199.643L584.483 216.09C586.094 216.475 587.713 215.481 588.099 213.87L599.856 164.708Z" fill="#15CC95"/>
<g id="Resume" filter="url(#filter2_d)">
<path d="M479.575 163.37L476.742 162.693L475.012 169.927L471.276 169.033L475.906 149.673L482.395 151.225C483.468 151.481 484.408 151.842 485.215 152.307C486.024 152.763 486.676 153.308 487.172 153.941C487.675 154.577 488.004 155.298 488.159 156.103C488.322 156.911 488.289 157.793 488.06 158.751C487.894 159.442 487.661 160.047 487.359 160.565C487.068 161.076 486.714 161.517 486.298 161.886C485.892 162.248 485.433 162.541 484.921 162.765C484.417 162.992 483.87 163.161 483.281 163.273L485.532 172.26L485.49 172.433L481.488 171.475L479.575 163.37ZM477.467 159.661L480.233 160.323C481.288 160.575 482.163 160.503 482.857 160.107C483.563 159.704 484.027 159.037 484.25 158.106C484.481 157.14 484.381 156.324 483.949 155.659C483.52 154.985 482.76 154.517 481.67 154.256L478.918 153.598L477.467 159.661ZM494.681 174.912C493.573 174.647 492.611 174.224 491.793 173.645C490.976 173.065 490.318 172.388 489.819 171.612C489.323 170.828 488.998 169.973 488.845 169.046C488.703 168.112 488.747 167.162 488.978 166.196L489.105 165.664C489.368 164.565 489.781 163.604 490.343 162.783C490.907 161.952 491.577 161.283 492.355 160.776C493.132 160.268 493.99 159.935 494.928 159.775C495.866 159.615 496.836 159.655 497.837 159.894C498.874 160.142 499.755 160.535 500.479 161.074C501.214 161.606 501.787 162.249 502.197 163.003C502.615 163.759 502.866 164.611 502.949 165.559C503.034 166.497 502.95 167.494 502.698 168.549L502.322 170.118L492.562 167.784C492.517 168.288 492.552 168.77 492.667 169.229C492.793 169.681 492.99 170.093 493.256 170.466C493.523 170.839 493.855 171.158 494.251 171.421C494.647 171.684 495.102 171.878 495.617 172.001C495.98 172.088 496.348 172.138 496.719 172.152C497.1 172.168 497.47 172.149 497.829 172.094C498.191 172.031 498.538 171.931 498.871 171.795C499.203 171.659 499.509 171.479 499.787 171.255L501.159 173.692C500.85 173.964 500.471 174.216 500.022 174.446C499.585 174.669 499.083 174.845 498.519 174.972C497.965 175.093 497.364 175.155 496.717 175.16C496.069 175.164 495.391 175.081 494.681 174.912ZM497.095 162.88C496.679 162.78 496.279 162.764 495.898 162.832C495.518 162.891 495.162 163.026 494.831 163.238C494.508 163.451 494.212 163.727 493.944 164.066C493.675 164.405 493.441 164.798 493.24 165.247L499.303 166.697L499.373 166.404C499.448 166.01 499.461 165.624 499.411 165.247C499.361 164.869 499.241 164.527 499.052 164.219C498.865 163.903 498.607 163.63 498.278 163.401C497.959 163.166 497.565 162.992 497.095 162.88ZM514.345 175.158C514.398 174.937 514.391 174.729 514.325 174.535C514.268 174.343 514.124 174.145 513.892 173.939C513.671 173.727 513.358 173.507 512.953 173.279C512.548 173.051 512.028 172.796 511.393 172.512C510.591 172.143 509.87 171.75 509.229 171.334C508.599 170.912 508.078 170.464 507.667 169.991C507.257 169.508 506.967 168.998 506.795 168.461C506.633 167.925 506.625 167.352 506.771 166.74C506.913 166.146 507.191 165.613 507.604 165.14C508.017 164.667 508.538 164.29 509.167 164.01C509.797 163.729 510.521 163.56 511.341 163.503C512.16 163.446 513.049 163.532 514.006 163.761C515.008 164.001 515.879 164.335 516.62 164.766C517.362 165.187 517.959 165.672 518.409 166.22C518.87 166.761 519.179 167.35 519.335 167.988C519.492 168.625 519.491 169.276 519.332 169.941L515.636 169.057C515.769 168.498 515.654 167.979 515.291 167.498C514.93 167.009 514.289 166.654 513.367 166.434C512.507 166.228 511.819 166.227 511.301 166.432C510.793 166.638 510.484 166.967 510.376 167.419C510.325 167.632 510.322 167.842 510.366 168.05C510.412 168.248 510.528 168.449 510.714 168.653C510.91 168.85 511.189 169.057 511.549 169.274C511.912 169.483 512.384 169.704 512.965 169.936C513.8 170.286 514.563 170.661 515.255 171.06C515.946 171.46 516.52 171.902 516.976 172.386C517.434 172.861 517.754 173.387 517.934 173.964C518.126 174.535 518.139 175.166 517.973 175.857C517.821 176.496 517.525 177.048 517.085 177.515C516.656 177.974 516.112 178.331 515.451 178.586C514.799 178.842 514.048 178.986 513.197 179.017C512.349 179.039 511.432 178.932 510.448 178.697C509.367 178.438 508.443 178.067 507.678 177.584C506.921 177.103 506.318 176.57 505.868 175.985C505.419 175.39 505.118 174.77 504.963 174.123C504.819 173.471 504.818 172.852 504.957 172.267L508.481 173.109C508.414 173.506 508.44 173.868 508.559 174.196C508.679 174.515 508.864 174.799 509.114 175.046C509.367 175.284 509.669 175.488 510.023 175.657C510.385 175.828 510.765 175.961 511.164 176.056C512.077 176.275 512.808 176.295 513.357 176.117C513.905 175.939 514.235 175.619 514.345 175.158ZM530.133 180.972C529.473 181.574 528.749 181.996 527.96 182.238C527.18 182.483 526.382 182.507 525.567 182.312C524.822 182.134 524.167 181.856 523.602 181.477C523.036 181.098 522.592 180.607 522.267 180.005C521.945 179.394 521.752 178.673 521.688 177.842C521.635 177.005 521.739 176.041 522 174.951L524.035 166.441L527.732 167.325L525.69 175.861C525.55 176.446 525.472 176.948 525.457 177.366C525.45 177.786 525.51 178.142 525.637 178.435C525.766 178.719 525.968 178.95 526.244 179.129C526.52 179.307 526.875 179.448 527.309 179.552C528.045 179.728 528.676 179.734 529.203 179.569C529.732 179.396 530.174 179.094 530.53 178.664L532.944 168.571L536.654 169.459L533.213 183.846L529.862 183.044L530.133 180.972ZM542.571 170.874L542.261 172.641C542.684 172.086 543.177 171.689 543.741 171.449C544.315 171.202 544.948 171.161 545.64 171.326C546.801 171.604 547.437 172.295 547.548 173.399C547.946 172.989 548.394 172.702 548.892 172.54C549.401 172.371 549.966 172.361 550.586 172.509C551.02 172.613 551.405 172.79 551.739 173.038C552.082 173.289 552.348 173.624 552.538 174.045C552.739 174.458 552.848 174.962 552.866 175.557C552.894 176.145 552.812 176.837 552.621 177.635L550.166 187.9L546.802 187.096L549.261 176.817C549.326 176.543 549.349 176.309 549.33 176.117C549.319 175.927 549.276 175.772 549.202 175.651C549.13 175.521 549.032 175.423 548.907 175.355C548.794 175.281 548.671 175.228 548.538 175.197C548.281 175.135 548.049 175.145 547.842 175.227C547.637 175.3 547.461 175.426 547.315 175.607L544.688 186.59L541.43 185.811L543.892 175.519C543.958 175.245 543.985 175.012 543.974 174.822C543.963 174.632 543.921 174.477 543.847 174.356C543.781 174.237 543.691 174.145 543.575 174.08C543.462 174.006 543.334 173.952 543.192 173.918C542.909 173.85 542.659 173.875 542.444 173.992C542.237 174.111 542.053 174.292 541.892 174.535L539.316 185.305L535.952 184.501L539.393 170.114L542.571 170.874ZM560.102 190.558C558.994 190.293 558.031 189.87 557.214 189.291C556.397 188.711 555.739 188.034 555.24 187.258C554.744 186.474 554.419 185.619 554.265 184.692C554.123 183.758 554.168 182.808 554.399 181.842L554.526 181.31C554.789 180.211 555.201 179.25 555.763 178.429C556.327 177.598 556.998 176.929 557.776 176.422C558.553 175.914 559.411 175.581 560.349 175.421C561.286 175.261 562.256 175.301 563.258 175.54C564.295 175.788 565.176 176.181 565.9 176.72C566.635 177.252 567.207 177.895 567.617 178.649C568.036 179.405 568.287 180.257 568.37 181.205C568.454 182.143 568.371 183.14 568.118 184.195L567.743 185.764L557.983 183.43C557.937 183.934 557.972 184.416 558.087 184.875C558.214 185.327 558.41 185.739 558.677 186.112C558.944 186.485 559.276 186.804 559.672 187.067C560.068 187.33 560.523 187.524 561.037 187.647C561.401 187.734 561.768 187.784 562.14 187.798C562.52 187.814 562.89 187.795 563.25 187.74C563.612 187.677 563.959 187.577 564.292 187.441C564.624 187.305 564.929 187.125 565.208 186.901L566.579 189.338C566.27 189.61 565.892 189.862 565.443 190.092C565.005 190.315 564.504 190.491 563.939 190.618C563.386 190.739 562.785 190.801 562.137 190.806C561.49 190.81 560.811 190.727 560.102 190.558ZM562.516 178.526C562.099 178.426 561.7 178.41 561.318 178.478C560.939 178.537 560.583 178.672 560.251 178.884C559.929 179.097 559.633 179.373 559.364 179.712C559.096 180.051 558.861 180.444 558.66 180.893L564.724 182.343L564.794 182.05C564.869 181.656 564.882 181.27 564.831 180.893C564.781 180.515 564.662 180.173 564.473 179.865C564.286 179.549 564.028 179.276 563.698 179.047C563.38 178.812 562.986 178.638 562.516 178.526Z" fill="white"/>
</g>
</g>
</g>
<g id="mydesk (1)" clip-path="url(#clip0)">
<g id="Layer 2">
<g id="background">
<g id="book">
<path id="Vector" d="M479.428 255.893H429.785V248.832H479.428V255.893Z" fill="#A2BAE6"/>
<path id="Vector_2" d="M478.195 252.786V251.978C478.195 251.447 477.984 250.938 477.609 250.563C477.234 250.188 476.726 249.977 476.195 249.977H429.7C429.17 249.977 428.661 249.767 428.287 249.391C427.912 249.016 427.701 248.508 427.701 247.977C427.701 247.447 427.912 246.938 428.287 246.563C428.661 246.187 429.17 245.977 429.7 245.977H480.152C480.682 245.977 481.19 246.187 481.565 246.563C481.94 246.938 482.151 247.447 482.151 247.977V256.744C482.151 257.275 481.94 257.784 481.565 258.159C481.19 258.534 480.682 258.745 480.152 258.745H429.7C429.17 258.745 428.661 258.534 428.287 258.159C427.912 257.784 427.701 257.275 427.701 256.744C427.701 256.214 427.912 255.705 428.287 255.33C428.661 254.955 429.17 254.744 429.7 254.744H476.195C476.718 254.744 477.221 254.539 477.594 254.173C477.968 253.807 478.184 253.309 478.195 252.786Z" fill="#FD2468"/>
<g id="Group">
<path id="Vector_3" d="M503.463 255.893H470.963V248.832H503.463V255.893Z" fill="white"/>
<path id="Vector_4" d="M503.888 255.893H495.678V248.832H503.888V255.893Z" fill="#A2BAE6"/>
<path id="Vector_5" d="M502.655 252.786V251.978C502.655 251.447 502.444 250.938 502.069 250.563C501.694 250.188 501.186 249.977 500.655 249.977H471.346C470.816 249.977 470.307 249.767 469.932 249.391C469.557 249.016 469.347 248.508 469.347 247.977C469.347 247.447 469.557 246.938 469.932 246.563C470.307 246.187 470.816 245.977 471.346 245.977H504.654C504.917 245.977 505.177 246.028 505.419 246.129C505.662 246.23 505.882 246.377 506.068 246.563C506.253 246.748 506.401 246.969 506.501 247.212C506.602 247.454 506.653 247.714 506.653 247.977V256.744C506.653 257.007 506.602 257.267 506.501 257.51C506.401 257.753 506.253 257.973 506.068 258.159C505.882 258.345 505.662 258.492 505.419 258.592C505.177 258.693 504.917 258.745 504.654 258.745H471.346C470.816 258.745 470.307 258.534 469.932 258.159C469.557 257.784 469.347 257.275 469.347 256.744C469.347 256.214 469.557 255.705 469.932 255.33C470.307 254.955 470.816 254.744 471.346 254.744H500.655C501.178 254.744 501.681 254.539 502.054 254.173C502.428 253.807 502.644 253.309 502.655 252.786Z" fill="#E11D56"/>
</g>
</g>
<g id="desk">
<path id="Vector_6" d="M43 257.5H42.5V258V272V272.5H43H549H549.5V272V258V257.5H549H43Z" fill="#F1F1F1" stroke="#BEBEBE"/>
<path id="Vector_7" d="M81.0927 302.666H102.49V395.983H81.0927V302.666Z" fill="#8C8C8C"/>
<path id="Vector_8" d="M82.454 272.151H101.129V302.675H82.454V272.151Z" fill="#5C5C5C"/>
<path id="Vector_9" d="M82.454 272.151H101.129V288.371H82.454V272.151Z" fill="#4D4D4D"/>
<path id="Vector_10" d="M484.916 302.666H506.313V395.983H484.916V302.666Z" fill="#8C8C8C"/>
<path id="Vector_11" d="M486.277 272.151H504.952V302.675H486.277V272.151Z" fill="#5C5C5C"/>
<path id="Vector_12" d="M486.277 272.151H504.952V288.371H486.277V272.151Z" fill="#4D4D4D"/>
<path id="Vector_13" d="M516.419 258V258.083C516.419 263.26 417.707 267.485 295.958 267.485C174.209 267.485 75.5394 263.26 75.5394 258.083V258H43V272H549V258H516.419Z" fill="white"/>
<path id="Vector_14" d="M517.118 272.321H474.111C471.245 272.321 468.921 274.641 468.921 277.503C468.921 280.365 471.245 282.685 474.111 282.685H517.118C519.984 282.685 522.308 280.365 522.308 277.503C522.308 274.641 519.984 272.321 517.118 272.321Z" fill="#1A1A1A"/>
<path id="Vector_15" d="M484.703 274.747H475.387C474.283 274.747 473.388 275.643 473.388 276.747V278.254C473.388 279.359 474.283 280.254 475.387 280.254H484.703C485.807 280.254 486.702 279.359 486.702 278.254V276.747C486.702 275.643 485.807 274.747 484.703 274.747Z" fill="#6B6B6B"/>
<path id="Vector_16" d="M492.275 275.215H490.446C489.671 275.215 489.042 275.844 489.042 276.62V278.45C489.042 279.225 489.671 279.854 490.446 279.854H492.275C493.05 279.854 493.679 279.225 493.679 278.45V276.62C493.679 275.844 493.05 275.215 492.275 275.215Z" fill="#4F4F4F"/>
<path id="Vector_17" d="M498.188 275.215H496.359C495.584 275.215 494.955 275.844 494.955 276.62V278.45C494.955 279.225 495.584 279.854 496.359 279.854H498.188C498.963 279.854 499.592 279.225 499.592 278.45V276.62C499.592 275.844 498.963 275.215 498.188 275.215Z" fill="#4F4F4F"/>
<path id="Vector_18" d="M504.101 275.215H502.272C501.497 275.215 500.868 275.844 500.868 276.62V278.45C500.868 279.225 501.497 279.854 502.272 279.854H504.101C504.876 279.854 505.505 279.225 505.505 278.45V276.62C505.505 275.844 504.876 275.215 504.101 275.215Z" fill="#4F4F4F"/>
<path id="Vector_19" d="M510.056 275.215H508.227C507.452 275.215 506.824 275.844 506.824 276.62V278.45C506.824 279.225 507.452 279.854 508.227 279.854H510.056C510.832 279.854 511.46 279.225 511.46 278.45V276.62C511.46 275.844 510.832 275.215 510.056 275.215Z" fill="#4F4F4F"/>
<path id="Vector_20" d="M515.969 275.215H514.14C513.365 275.215 512.736 275.844 512.736 276.62V278.45C512.736 279.225 513.365 279.854 514.14 279.854H515.969C516.745 279.854 517.373 279.225 517.373 278.45V276.62C517.373 275.844 516.745 275.215 515.969 275.215Z" fill="#4F4F4F"/>
</g>
<g id="screen">
<path id="Vector_21" d="M365.339 136.811H226.619C223.588 136.811 221.131 139.269 221.131 142.301V234.839C221.131 237.871 223.588 240.329 226.619 240.329H365.339C368.369 240.329 370.826 237.871 370.826 234.839V142.301C370.826 139.269 368.369 136.811 365.339 136.811Z" fill="white"/>
<path id="Vector_22" d="M226.661 231.208C226.048 231.22 225.455 230.99 225.009 230.568C224.563 230.146 224.301 229.566 224.279 228.953V142.173C224.301 141.56 224.563 140.98 225.009 140.558C225.455 140.136 226.048 139.906 226.661 139.918H365.339C365.952 139.906 366.545 140.136 366.991 140.558C367.437 140.98 367.699 141.56 367.721 142.173V228.953C367.699 229.566 367.437 230.146 366.991 230.568C366.545 230.99 365.952 231.22 365.339 231.208H226.661Z" fill="#1B2F46"/>
<path id="Vector_23" d="M330.159 143.322H229.554C228.544 143.322 227.725 144.142 227.725 145.153V225.335C227.725 226.346 228.544 227.165 229.554 227.165H330.159C331.169 227.165 331.988 226.346 331.988 225.335V145.153C331.988 144.142 331.169 143.322 330.159 143.322Z" fill="#E3E3E3" stroke="white" stroke-miterlimit="10"/>
<path id="Vector_24" d="M230.107 143.535H329.861C330.425 143.535 330.966 143.759 331.365 144.159C331.764 144.558 331.988 145.099 331.988 145.663V148.259H227.98V145.663C227.98 145.099 228.204 144.558 228.603 144.159C229.002 143.759 229.543 143.535 230.107 143.535Z" fill="#9E9E9E"/>
<path id="Vector_25" d="M227.98 148.259H331.988V152.992H227.98V148.259ZM230.32 154.473H328.032V159.206H230.32V154.473ZM230.32 161.41H328.032V182.371H230.32V161.41ZM230.32 185.84H328.032V219.368H230.32V185.84Z" fill="white"/>
<path id="Vector_26" d="M302.806 148.898H240.614C239.674 148.898 238.913 149.66 238.913 150.6V150.634C238.913 151.574 239.674 152.337 240.614 152.337H302.806C303.746 152.337 304.508 151.574 304.508 150.634V150.6C304.508 149.66 303.746 148.898 302.806 148.898Z" fill="#E8E8E8" stroke="#B8B8B8" stroke-width="0.83" stroke-miterlimit="10"/>
<path id="Vector_27" d="M242.188 144.386H257.204C257.746 144.386 258.265 144.602 258.648 144.985C259.031 145.368 259.246 145.888 259.246 146.429V148.259H240.146V146.429C240.146 145.888 240.361 145.368 240.744 144.985C241.127 144.602 241.647 144.386 242.188 144.386Z" fill="white"/>
<path id="Vector_28" d="M360.617 147.366H303.359C302.725 147.366 302.211 147.88 302.211 148.515V219.845C302.211 220.48 302.725 220.994 303.359 220.994H360.617C361.251 220.994 361.765 220.48 361.765 219.845V148.515C361.765 147.88 361.251 147.366 360.617 147.366Z" fill="black" stroke="white" stroke-miterlimit="10"/>
<path id="Vector_29" d="M303.232 147.578H360.659C360.885 147.578 361.101 147.668 361.261 147.828C361.421 147.987 361.51 148.204 361.51 148.43V151.537H302.381V148.472C302.375 148.357 302.393 148.242 302.433 148.133C302.473 148.025 302.535 147.926 302.615 147.843C302.694 147.759 302.79 147.692 302.896 147.647C303.002 147.602 303.116 147.578 303.232 147.578Z" fill="#636363"/>
<path id="Vector_30" d="M230.32 146.812C230.884 146.812 231.341 146.355 231.341 145.791C231.341 145.227 230.884 144.77 230.32 144.77C229.756 144.77 229.299 145.227 229.299 145.791C229.299 146.355 229.756 146.812 230.32 146.812Z" fill="white"/>
<path id="Vector_31" d="M233.255 146.812C233.819 146.812 234.276 146.355 234.276 145.791C234.276 145.227 233.819 144.77 233.255 144.77C232.691 144.77 232.234 145.227 232.234 145.791C232.234 146.355 232.691 146.812 233.255 146.812Z" fill="white"/>
<path id="Vector_32" d="M236.19 146.812C236.754 146.812 237.211 146.355 237.211 145.791C237.211 145.227 236.754 144.77 236.19 144.77C235.626 144.77 235.169 145.227 235.169 145.791C235.169 146.355 235.626 146.812 236.19 146.812Z" fill="white"/>
<path id="Vector_33" d="M236.53 151.834C237.188 151.834 237.722 151.301 237.722 150.643C237.722 149.985 237.188 149.451 236.53 149.451C235.873 149.451 235.339 149.985 235.339 150.643C235.339 151.301 235.873 151.834 236.53 151.834Z" fill="#B8B8B8"/>
<path id="Vector_34" d="M233.34 151.834C233.998 151.834 234.531 151.301 234.531 150.643C234.531 149.985 233.998 149.451 233.34 149.451C232.682 149.451 232.149 149.985 232.149 150.643C232.149 151.301 232.682 151.834 233.34 151.834Z" fill="#B8B8B8"/>
<path id="Vector_35" d="M230.32 151.834C230.978 151.834 231.511 151.301 231.511 150.643C231.511 149.985 230.978 149.451 230.32 149.451C229.662 149.451 229.129 149.985 229.129 150.643C229.129 151.301 229.662 151.834 230.32 151.834Z" fill="#B8B8B8"/>
<path id="Vector_36" d="M231.851 155.239H242.061V158.325H231.851V155.239ZM232.106 187.287H266.648V190.372H232.106V187.287ZM232.106 192.394H302.211V194.484H232.106V192.394ZM232.106 195.203H302.211V197.293H232.106V195.203ZM232.106 198.054H302.211V200.144H232.106V198.054ZM232.106 200.906H302.211V202.996H232.106V200.906ZM232.106 203.8H302.211V205.89H232.106V203.8ZM232.106 206.651H302.211V208.741H232.106V206.651ZM232.106 209.46H302.211V211.55H232.106V209.46ZM232.106 212.312H302.211V214.402H232.106V212.312ZM232.106 215.163H302.211V217.253H232.106V215.163Z" fill="#B8B8B8"/>
<g id="textCode">
<path id="Vector_37" d="M304.55 157.835H340.836V160.014H304.55V157.835ZM304.55 162.091H345.09V164.27H304.55V162.091ZM304.55 166.305H350.578V168.484H304.55V166.305ZM304.55 170.561H336.582V172.74H304.55V170.561ZM304.55 175.881H356.661V178.06H304.55V175.881ZM304.55 180.094H354.917V182.273H304.55V180.094ZM304.55 184.35H353.683V186.529H304.55V184.35ZM304.55 191.458H355.767V193.637H304.55V191.458ZM304.55 195.288H346.664V197.467H304.55V195.288ZM304.55 199.587H350.578V201.766H304.55V199.587ZM304.55 203.417H342.41V205.596H304.55V203.417Z" fill="#D4D4D4"/>
</g>
<path id="Vector_38" fill-rule="evenodd" clip-rule="evenodd" d="M252.865 164.007L230.32 182.35H283.664L252.865 164.007Z" fill="#8F8F8F"/>
<path id="Vector_39" d="M261.501 164.007L238.913 182.35H292.257L261.501 164.007Z" fill="black"/>
<path id="Vector_40" d="M293.618 165.071L262.564 182.35H302.211L293.618 165.071Z" fill="black"/>
<path id="Vector_41" d="M384.396 156.005H397.966V257.736H384.396V156.005Z" fill="#3B3B3B"/>
<path id="Vector_42" d="M384.396 177.796H391.16V257.732H384.396V177.796ZM384.396 156.005H391.16V164.262H384.396V156.005Z" fill="#2E2E2E"/>
<path id="Vector_43" d="M370.826 164.219H395.584C397.152 164.219 398.656 164.843 399.765 165.952C400.874 167.061 401.497 168.566 401.497 170.135V171.923C401.497 173.492 400.874 174.996 399.765 176.106C398.656 177.215 397.152 177.838 395.584 177.838H370.826V164.219Z" fill="#3B3B3B"/>
</g>
<g id="laptop">
<path id="Vector_44" d="M179.103 196.905H93.4716C91.6156 196.905 90.111 198.411 90.111 200.267V250.777C90.111 252.634 91.6156 254.14 93.4716 254.14H179.103C180.959 254.14 182.463 252.634 182.463 250.777V200.267C182.463 198.411 180.959 196.905 179.103 196.905Z" fill="#D4D4D4"/>
<path id="Vector_45" fill-rule="evenodd" clip-rule="evenodd" d="M135.67 243.806C117.081 243.806 100.533 238.912 90.111 231.294V250.829C90.111 251.72 90.4651 252.575 91.0953 253.206C91.7255 253.837 92.5803 254.191 93.4716 254.191H179.145C180.037 254.191 180.891 253.837 181.522 253.206C182.152 252.575 182.506 251.72 182.506 250.829V230.4C172.126 238.486 155.026 243.806 135.67 243.806Z" fill="#C4C4C4"/>
<path id="Vector_46" d="M118.229 246.743H154.345V257.808H118.229V246.743Z" fill="#575757"/>
<path id="Vector_47" d="M118.229 246.913H154.345V250.552H118.229V246.913Z" fill="#2E2E2E"/>
<path id="Vector_48" d="M136.308 230.315C138.963 230.315 141.115 228.162 141.115 225.505C141.115 222.849 138.963 220.696 136.308 220.696C133.654 220.696 131.502 222.849 131.502 225.505C131.502 228.162 133.654 230.315 136.308 230.315Z" fill="#A8A8A8"/>
<path id="Vector_49" d="M182.463 201.927H185.654V204.383H182.463V201.927Z" fill="#666666"/>
<path id="Vector_50" fill-rule="evenodd" clip-rule="evenodd" d="M185.654 202.566C185.654 202.566 198.203 202.012 198.075 211.886C197.947 221.76 186.717 233.251 188.078 240.955C189.44 248.658 196.586 257.766 196.586 257.766H194.672C194.672 257.766 187.61 249.254 186.547 240.614C185.611 232.868 196.586 219.121 196.671 211.546C196.756 203.97 185.696 203.8 185.696 203.8L185.654 202.566Z" fill="#666666"/>
</g>
<g id="personInChair">
<path id="Vector_51" d="M291.831 356.59H300.892V371.771H291.831V356.59Z" fill="white"/>
<path id="Vector_52" d="M272.093 357.739H320.673C321.496 357.739 322.286 357.411 322.868 356.829C323.451 356.246 323.778 355.456 323.778 354.632H268.988C268.988 355.456 269.315 356.246 269.897 356.829C270.48 357.411 271.269 357.739 272.093 357.739Z" fill="#303030"/>
<path id="Vector_53" d="M290.342 371.443H302.466V396.004H290.342V371.443Z" fill="#5E5E5E"/>
<path id="Vector_54" d="M296 176.987L278.006 180.605C278.006 180.605 280.346 187.585 285.067 191.968C289.789 196.352 296 194.139 296 194.139C296 194.139 302.211 196.352 306.933 191.968C311.654 187.585 313.994 180.605 313.994 180.605L296 176.987Z" fill="#272332"/>
<path id="Vector_55" d="M277.751 166.688C277.751 166.688 275.411 153.75 270.987 157.069C268.265 159.112 272.391 165.794 272.391 167.837C272.476 172.689 275.071 174.093 276.9 171.71C277.437 171.004 277.795 170.178 277.943 169.304C278.091 168.429 278.025 167.531 277.751 166.688ZM314.207 166.688C314.207 166.688 316.589 153.75 320.97 157.069C323.693 159.112 319.567 165.794 319.567 167.837C319.482 172.689 316.887 174.093 315.057 171.71C314.521 171.004 314.163 170.178 314.015 169.304C313.867 168.429 313.932 167.531 314.207 166.688Z" fill="#FDC8A9"/>
<path id="Vector_56" d="M277.751 166.688C277.751 166.688 275.411 153.75 270.987 157.069C268.265 159.112 272.391 165.794 272.391 167.837C272.476 172.689 275.071 174.093 276.9 171.71C277.437 171.004 277.795 170.178 277.943 169.304C278.091 168.429 278.025 167.531 277.751 166.688Z" fill="url(#paint0_linear)"/>
<path id="Vector_57" d="M314.207 166.688C314.207 166.688 316.589 153.75 320.97 157.069C323.693 159.112 319.567 165.794 319.567 167.837C319.482 172.689 316.887 174.093 315.058 171.71C314.521 171.004 314.163 170.178 314.015 169.304C313.867 168.429 313.932 167.531 314.207 166.688Z" fill="url(#paint1_linear)"/>
<path id="Vector_58" d="M321.013 157.069C320.12 156.388 319.269 156.388 318.546 156.856C319.164 157.934 319.524 159.141 319.598 160.382C319.672 161.622 319.457 162.863 318.971 164.007C318.431 165.107 318.154 166.318 318.161 167.544C318.168 168.77 318.46 169.978 319.014 171.071C319.393 170.051 319.58 168.968 319.567 167.879C319.609 165.794 323.693 159.112 321.013 157.069ZM270.987 157.069C271.88 156.388 272.731 156.388 273.454 156.856C272.836 157.934 272.476 159.141 272.402 160.382C272.328 161.622 272.543 162.863 273.029 164.007C273.569 165.107 273.847 166.318 273.839 167.544C273.832 168.77 273.54 169.978 272.986 171.071C272.607 170.051 272.42 168.968 272.433 167.879C272.391 165.794 268.265 159.112 270.987 157.069Z" fill="#FDC8A9"/>
<path id="Vector_59" d="M302.849 191.5L308.719 186.989C311.139 185.176 313.137 182.859 314.576 180.2C316.015 177.54 316.862 174.6 317.057 171.582L318.291 149.196C318.971 136.853 309.017 126.256 296.043 126.256C283.026 126.256 273.114 136.853 273.795 149.196L275.028 171.582C275.218 174.597 276.058 177.535 277.49 180.194C278.922 182.853 280.912 185.171 283.323 186.989L289.194 191.5C290.295 192.335 291.641 192.783 293.022 192.777H299.063C300.43 192.774 301.759 192.326 302.849 191.5Z" fill="#EC9D90"/>
<path id="Vector_60" d="M309.825 178.647L296 180.69L282.175 178.647C282.175 178.647 284.004 190.223 278.261 199.714C278.061 200.045 277.994 200.44 278.073 200.819C278.152 201.198 278.371 201.533 278.687 201.757C281.111 203.417 287.194 206.822 296 206.864C304.806 206.907 310.889 203.417 313.313 201.757C313.629 201.533 313.849 201.198 313.927 200.819C314.006 200.44 313.939 200.045 313.739 199.714C307.996 190.223 309.825 178.647 309.825 178.647Z" fill="#FDC8A9"/>
<path id="Vector_61" d="M296 126.299C285.578 126.299 277.41 132.172 274.816 141.237C274.688 141.705 274.263 143.067 274.178 143.535C273.788 145.381 273.645 147.27 273.752 149.153C273.71 149.734 273.71 150.317 273.752 150.898L274.986 167.624C275.241 170.859 280.941 182.861 287.747 187.968C288.469 188.517 289.35 188.816 290.257 188.819H301.743C302.65 188.816 303.531 188.517 304.253 187.968C311.059 182.861 316.759 170.859 317.014 167.624L318.248 150.898C318.29 150.317 318.29 149.734 318.248 149.153C318.929 136.811 308.974 126.299 296 126.299Z" fill="#36323E"/>
<path id="Vector_62" d="M317.227 135.023C317.945 135.282 318.641 135.595 319.311 135.96C319.311 135.96 316.546 122 298.042 122C287.322 122 281.196 128.469 277.963 133.874C276.522 136.126 275.459 138.599 274.816 141.194C276.833 139.632 279.188 138.564 281.692 138.076C284.197 137.589 286.78 137.695 289.236 138.386C291.959 139.109 294.681 140.173 297.531 140.13C302.806 140.088 310.208 135.279 318.163 139.535C317.988 138.791 317.746 138.064 317.44 137.364L318.163 137.705C317.945 136.781 317.632 135.882 317.227 135.023Z" fill="#272332"/>
<path id="Vector_63" d="M274.986 167.624C275.326 172.135 291.236 188.308 296 188.308C305.656 188.308 316.674 172.135 317.014 167.624" fill="#36323E"/>
<path id="Vector_64" d="M235.339 396H263.16L259.587 350.844L273.071 348.886L295.957 338.8L318.843 348.886L332.328 350.844L328.84 396H356.661L363.637 352.078C365.977 339.098 361.85 325.606 353.13 317.818L335.519 306.667V306.369C317.227 314.838 295.617 317.733 275.156 315.477C269.966 314.455 265.329 312.37 260.14 309.774C258.651 308.88 257.077 308.071 255.503 307.305L238.87 317.818C230.15 325.606 226.023 339.098 228.363 352.078L235.339 396Z" fill="#0B253E"/>
<g id="Group_2">
<path id="Vector_65" d="M380.484 234.698L340.497 208.779C332.807 203.712 324.036 200.519 314.889 199.459L308.04 198.693C300.038 197.812 291.964 197.812 283.963 198.693L277.114 199.459C267.967 200.519 259.196 203.712 251.505 208.779L211.519 234.698C208.03 237.167 205.989 241.976 206.542 247.083C207.18 253.297 211.604 257.851 216.708 257.851H252.271L256.61 260.788V306.667L255.632 307.305C257.206 308.114 258.78 308.923 260.268 309.774C265.458 312.37 270.095 314.413 275.285 315.477C295.703 317.733 317.356 314.838 335.648 306.369V260.788L339.987 257.851H375.549C380.611 257.851 385.078 253.297 385.716 247.083C386.014 241.976 383.972 237.124 380.484 234.698Z" fill="#294E78"/>
<path id="Vector_66" d="M380.483 234.698L360.957 222.058C363.935 230.144 363.084 239.465 359.468 247.168C357.384 251.382 353.853 255.425 349.472 257.851H375.335C380.397 257.851 384.864 253.297 385.502 247.083C386.013 241.976 383.971 237.124 380.483 234.698Z" fill="#DEAF94"/>
<path id="Vector_67" d="M380.483 234.698L360.957 222.058C363.935 230.144 363.084 239.465 359.468 247.168C359.256 247.594 356.703 251.424 356.491 251.807L373.336 257.851H375.293C380.355 257.851 384.822 253.297 385.46 247.083C386.013 241.976 383.971 237.124 380.483 234.698Z" fill="#FDC8A9"/>
<path id="Vector_68" d="M211.517 234.698L231.043 222.058C228.065 230.144 228.916 239.465 232.532 247.168C234.616 251.382 238.147 255.425 242.528 257.851H216.665C211.603 257.851 207.136 253.297 206.498 247.083C205.987 241.976 208.029 237.124 211.517 234.698Z" fill="#DEAF94"/>
<path id="Vector_69" d="M211.517 234.698L231.043 222.058C228.065 230.144 228.916 239.465 232.532 247.168C232.744 247.594 235.297 251.424 235.509 251.807L218.664 257.851H216.707C211.645 257.851 207.178 253.297 206.54 247.083C205.987 241.976 208.029 237.124 211.517 234.698Z" fill="#FDC8A9"/>
</g>
<path id="Vector_70" d="M349.514 338.034L349.004 337.651L342.878 333.224H247.888L241.805 337.651L241.295 338.034C240.937 338.347 240.649 338.733 240.451 339.166C240.253 339.599 240.149 340.069 240.146 340.545V345.95C240.146 348.252 241.061 350.461 242.688 352.089C244.315 353.717 246.523 354.632 248.824 354.632H341.985C344.286 354.632 346.494 353.717 348.121 352.089C349.748 350.461 350.663 348.252 350.663 345.95V340.545C350.66 340.069 350.556 339.599 350.358 339.166C350.16 338.733 349.872 338.347 349.514 338.034Z" fill="#647278"/>
<path id="Vector_71" d="M335.178 354.632H254.567C252.975 354.636 251.441 354.037 250.273 352.955C249.105 351.874 248.39 350.389 248.271 348.801L239.423 231.379C239.352 230.51 239.463 229.635 239.747 228.811C240.032 227.987 240.485 227.231 241.076 226.591C241.668 225.951 242.386 225.44 243.186 225.092C243.985 224.744 244.847 224.566 245.719 224.569H347.855C348.742 224.564 349.621 224.746 350.433 225.105C351.245 225.463 351.971 225.989 352.566 226.648C353.16 227.307 353.609 228.084 353.882 228.929C354.155 229.774 354.247 230.666 354.151 231.549L341.432 348.971C341.274 350.522 340.547 351.958 339.392 353.004C338.237 354.049 336.736 354.629 335.178 354.632Z" fill="#8B9EA6"/>
<path id="Vector_72" d="M295.915 326.542C275.496 326.542 257.204 316.285 244.911 300.113L248.569 348.759C248.687 350.347 249.402 351.831 250.571 352.913C251.739 353.995 253.273 354.594 254.865 354.589H335.476C337.035 354.598 338.541 354.029 339.704 352.991C340.867 351.954 341.604 350.521 341.772 348.971L347.089 299.943C334.753 316.2 316.419 326.542 295.915 326.542Z" fill="#7A8B91"/>
</g>
</g>
</g>
</g>
</g>
<defs>
<filter id="filter0_d" x="229.893" y="25.4132" width="140.994" height="37.43" filterUnits="userSpaceOnUse" color-interpolation-filters="sRGB">
<feFlood flood-opacity="0" result="BackgroundImageFix"/>
<feColorMatrix in="SourceAlpha" type="matrix" values="0 0 0 0 0 0 0 0 0 0 0 0 0 0 0 0 0 0 127 0"/>
<feOffset dx="3" dy="4"/>
<feGaussianBlur stdDeviation="2"/>
<feColorMatrix type="matrix" values="0 0 0 0 0 0 0 0 0 0 0 0 0 0 0 0 0 0 0.25 0"/>
<feBlend mode="normal" in2="BackgroundImageFix" result="effect1_dropShadow"/>
<feBlend mode="normal" in="SourceGraphic" in2="effect1_dropShadow" result="shape"/>
</filter>
<filter id="filter1_d" x="22.0073" y="106.139" width="125.091" height="52.9068" filterUnits="userSpaceOnUse" color-interpolation-filters="sRGB">
<feFlood flood-opacity="0" result="BackgroundImageFix"/>
<feColorMatrix in="SourceAlpha" type="matrix" values="0 0 0 0 0 0 0 0 0 0 0 0 0 0 0 0 0 0 127 0"/>
<feOffset dx="-2" dy="4"/>
<feGaussianBlur stdDeviation="2"/>
<feColorMatrix type="matrix" values="0 0 0 0 0 0 0 0 0 0 0 0 0 0 0 0 0 0 0.25 0"/>
<feBlend mode="normal" in2="BackgroundImageFix" result="effect1_dropShadow"/>
<feBlend mode="normal" in="SourceGraphic" in2="effect1_dropShadow" result="shape"/>
</filter>
<filter id="filter2_d" x="469.276" y="149.673" width="105.126" height="49.133" filterUnits="userSpaceOnUse" color-interpolation-filters="sRGB">
<feFlood flood-opacity="0" result="BackgroundImageFix"/>
<feColorMatrix in="SourceAlpha" type="matrix" values="0 0 0 0 0 0 0 0 0 0 0 0 0 0 0 0 0 0 127 0"/>
<feOffset dx="2" dy="4"/>
<feGaussianBlur stdDeviation="2"/>
<feColorMatrix type="matrix" values="0 0 0 0 0 0 0 0 0 0 0 0 0 0 0 0 0 0 0.25 0"/>
<feBlend mode="normal" in2="BackgroundImageFix" result="effect1_dropShadow"/>
<feBlend mode="normal" in="SourceGraphic" in2="effect1_dropShadow" result="shape"/>
</filter>
<linearGradient id="paint0_linear" x1="274.054" y1="172.352" x2="274.054" y2="158.125" gradientUnits="userSpaceOnUse">
<stop stop-color="#EC9D90"/>
<stop offset="1" stop-color="#EC9D90" stop-opacity="0.2"/>
</linearGradient>
<linearGradient id="paint1_linear" x1="5516.11" y1="2087.44" x2="5516.11" y2="1541.84" gradientUnits="userSpaceOnUse">
<stop stop-color="#EC9D90"/>
<stop offset="1" stop-color="#EC9D90" stop-opacity="0.2"/>
</linearGradient>
<clipPath id="clip0">
<rect width="512" height="274" fill="white" transform="translate(40 122)"/>
</clipPath>
</defs>
</svg>
